<svg version="1.1" viewBox="0.0 0.0 960.0 540.0" fill="none" stroke="none" stroke-linecap="square" stroke-miterlimit="10" xmlns:xlink="http://www.w3.org/1999/xlink" xmlns="http://www.w3.org/2000/svg"><clipPath id="p.0"><path d="m0 0l960.0 0l0 540.0l-960.0 0l0 -540.0z" clip-rule="nonzero"/></clipPath><g clip-path="url(#p.0)"><path fill="#ffffff" d="m0 0l960.0 0l0 540.0l-960.0 0z" fill-rule="evenodd"/><path fill="#2ba051" d="m533.6011 68.608925l350.2992 0l0 195.1181l-350.2992 0z" fill-rule="evenodd"/><path fill="#eeeeee" d="m563.4317 86.3258q0 1.625 -1.109375 2.703125q-1.109375 1.078125 -3.375 1.078125l-2.5 0l0 5.421875l-1.703125 0l0 -13.0l4.203125 0q2.1875 0 3.328125 1.0625q1.15625 1.0625 1.15625 2.734375zm-4.484375 2.375q1.40625 0 2.078125 -0.609375q0.671875 -0.625 0.671875 -1.765625q0 -2.40625 -2.75 -2.40625l-2.5 0l0 4.78125l2.5 0zm15.661377 -3.390625l0 10.21875l-1.6875 0l0 -1.515625q-0.484375 0.78125 -1.359375 1.234375q-0.875 0.4375 -1.90625 0.4375q-1.203125 0 -2.15625 -0.5q-0.953125 -0.5 -1.5 -1.484375q-0.546875 -0.984375 -0.546875 -2.40625l0 -5.984375l1.671875 0l0 5.765625q0 1.5 0.765625 2.3125q0.765625 0.8125 2.09375 0.8125q1.359375 0 2.140625 -0.828125q0.796875 -0.84375 0.796875 -2.453125l0 -5.609375l1.6875 0zm4.5806274 1.65625q0.4375 -0.875 1.265625 -1.359375q0.84375 -0.484375 2.03125 -0.484375l0 1.75l-0.453125 0q-2.84375 0 -2.84375 3.09375l0 5.5625l-1.703125 0l0 -10.21875l1.703125 0l0 1.65625zm14.583801 3.0625q0 0.484375 -0.0625 1.015625l-8.171875 0q0.09375 1.515625 1.03125 2.375q0.953125 0.84375 2.296875 0.84375q1.09375 0 1.828125 -0.515625q0.75 -0.515625 1.046875 -1.375l1.828125 0q-0.40625 1.484375 -1.640625 2.40625q-1.234375 0.921875 -3.0625 0.921875q-1.453125 0 -2.609375 -0.65625q-1.140625 -0.65625 -1.796875 -1.859375q-0.65625 -1.203125 -0.65625 -2.78125q0 -1.59375 0.640625 -2.78125q0.640625 -1.203125 1.78125 -1.84375q1.140625 -0.640625 2.640625 -0.640625q1.453125 0 2.5625 0.640625q1.125 0.625 1.734375 1.734375q0.609375 1.109375 0.609375 2.515625zm-1.75 -0.359375q0 -0.96875 -0.4375 -1.671875q-0.421875 -0.703125 -1.171875 -1.0625q-0.734375 -0.359375 -1.625 -0.359375q-1.28125 0 -2.1875 0.828125q-0.90625 0.8125 -1.03125 2.265625l6.453125 0zm3.3480835 -0.65625q0 -1.890625 0.859375 -3.40625q0.859375 -1.53125 2.34375 -2.390625q1.484375 -0.859375 3.296875 -0.859375q2.125 0 3.703125 1.03125q1.59375 1.015625 2.328125 2.90625l-2.046875 0q-0.53125 -1.171875 -1.546875 -1.796875q-1.015625 -0.640625 -2.4375 -0.640625q-1.359375 0 -2.453125 0.640625q-1.078125 0.625 -1.703125 1.796875q-0.609375 1.15625 -0.609375 2.71875q0 1.546875 0.609375 2.71875q0.625 1.171875 1.703125 1.8125q1.09375 0.625 2.453125 0.625q1.421875 0 2.4375 -0.625q1.015625 -0.625 1.546875 -1.796875l2.046875 0q-0.734375 1.859375 -2.328125 2.875q-1.578125 1.015625 -3.703125 1.015625q-1.8125 0 -3.296875 -0.84375q-1.484375 -0.84375 -2.34375 -2.359375q-0.859375 -1.515625 -0.859375 -3.421875zm14.402649 1.359375q0 -1.5625 0.640625 -2.734375q0.640625 -1.1875 1.75 -1.84375q1.109375 -0.65625 2.46875 -0.65625q1.34375 0 2.328125 0.578125q0.984375 0.578125 1.46875 1.453125l0 -1.859375l1.71875 0l0 10.21875l-1.71875 0l0 -1.90625q-0.5 0.90625 -1.5 1.5q-1.0 0.578125 -2.3125 0.578125q-1.375 0 -2.46875 -0.671875q-1.09375 -0.671875 -1.734375 -1.875q-0.640625 -1.21875 -0.640625 -2.78125zm8.65625 0.03125q0 -1.15625 -0.46875 -2.015625q-0.453125 -0.859375 -1.25 -1.3125q-0.796875 -0.46875 -1.75 -0.46875q-0.953125 0 -1.734375 0.453125q-0.78125 0.453125 -1.25 1.3125q-0.46875 0.84375 -0.46875 2.0q0 1.1875 0.46875 2.0625q0.46875 0.859375 1.25 1.3125q0.78125 0.453125 1.734375 0.453125q0.953125 0 1.75 -0.453125q0.796875 -0.453125 1.25 -1.3125q0.46875 -0.875 0.46875 -2.03125zm6.2991333 -3.21875q0.5 -0.875 1.5 -1.453125q1.0 -0.59375 2.3125 -0.59375q1.375 0 2.484375 0.65625q1.109375 0.65625 1.734375 1.84375q0.640625 1.171875 0.640625 2.734375q0 1.5625 -0.640625 2.78125q-0.625 1.203125 -1.734375 1.875q-1.109375 0.671875 -2.484375 0.671875q-1.296875 0 -2.296875 -0.578125q-1.0 -0.59375 -1.515625 -1.484375l0 6.734375l-1.703125 0l0 -15.0625l1.703125 0l0 1.875zm6.9375 3.1875q0 -1.15625 -0.46875 -2.0q-0.46875 -0.859375 -1.265625 -1.3125q-0.78125 -0.453125 -1.734375 -0.453125q-0.9375 0 -1.734375 0.46875q-0.796875 0.453125 -1.265625 1.328125q-0.46875 0.859375 -0.46875 2.0q0 1.15625 0.46875 2.03125q0.46875 0.859375 1.265625 1.3125q0.796875 0.453125 1.734375 0.453125q0.953125 0 1.734375 -0.453125q0.796875 -0.453125 1.265625 -1.3125q0.46875 -0.875 0.46875 -2.0625zm14.842834 5.28125q-1.8125 0 -3.3125 -0.84375q-1.484375 -0.84375 -2.359375 -2.359375q-0.859375 -1.53125 -0.859375 -3.4375q0 -1.890625 0.859375 -3.40625q0.875 -1.53125 2.359375 -2.375q1.5 -0.859375 3.3125 -0.859375q1.828125 0 3.3125 0.859375q1.5 0.84375 2.359375 2.359375q0.859375 1.5 0.859375 3.421875q0 1.921875 -0.859375 3.4375q-0.859375 1.515625 -2.359375 2.359375q-1.484375 0.84375 -3.3125 0.84375zm0 -1.46875q1.359375 0 2.453125 -0.625q1.09375 -0.640625 1.71875 -1.8125q0.625 -1.1875 0.625 -2.734375q0 -1.5625 -0.625 -2.71875q-0.625 -1.171875 -1.703125 -1.796875q-1.078125 -0.640625 -2.46875 -0.640625q-1.375 0 -2.46875 0.640625q-1.078125 0.625 -1.703125 1.796875q-0.625 1.15625 -0.625 2.71875q0 1.546875 0.625 2.734375q0.625 1.171875 1.71875 1.8125q1.09375 0.625 2.453125 0.625zm10.476318 -7.0q0.5 -0.875 1.5 -1.453125q1.0 -0.59375 2.3125 -0.59375q1.375 0 2.484375 0.65625q1.109375 0.65625 1.734375 1.84375q0.640625 1.171875 0.640625 2.734375q0 1.5625 -0.640625 2.78125q-0.625 1.203125 -1.734375 1.875q-1.109375 0.671875 -2.484375 0.671875q-1.296875 0 -2.296875 -0.578125q-1.0 -0.59375 -1.515625 -1.484375l0 6.734375l-1.703125 0l0 -15.0625l1.703125 0l0 1.875zm6.9375 3.1875q0 -1.15625 -0.46875 -2.0q-0.46875 -0.859375 -1.265625 -1.3125q-0.78125 -0.453125 -1.734375 -0.453125q-0.9375 0 -1.734375 0.46875q-0.796875 0.453125 -1.265625 1.328125q-0.46875 0.859375 -0.46875 2.0q0 1.15625 0.46875 2.03125q0.46875 0.859375 1.265625 1.3125q0.796875 0.453125 1.734375 0.453125q0.953125 0 1.734375 -0.453125q0.796875 -0.453125 1.265625 -1.3125q0.46875 -0.875 0.46875 -2.0625zm13.299133 -0.34375q0 0.484375 -0.0625 1.015625l-8.171875 0q0.09375 1.515625 1.03125 2.375q0.953125 0.84375 2.296875 0.84375q1.09375 0 1.828125 -0.515625q0.75 -0.515625 1.046875 -1.375l1.828125 0q-0.40625 1.484375 -1.640625 2.40625q-1.234375 0.921875 -3.0625 0.921875q-1.453125 0 -2.609375 -0.65625q-1.140625 -0.65625 -1.796875 -1.859375q-0.65625 -1.203125 -0.65625 -2.78125q0 -1.59375 0.640625 -2.78125q0.640625 -1.203125 1.78125 -1.84375q1.140625 -0.640625 2.640625 -0.640625q1.453125 0 2.5625 0.640625q1.125 0.625 1.734375 1.734375q0.609375 1.109375 0.609375 2.515625zm-1.75 -0.359375q0 -0.96875 -0.4375 -1.671875q-0.421875 -0.703125 -1.171875 -1.0625q-0.734375 -0.359375 -1.625 -0.359375q-1.28125 0 -2.1875 0.828125q-0.90625 0.8125 -1.03125 2.265625l6.453125 0zm8.973145 -4.546875q1.859375 0 3.015625 1.125q1.15625 1.125 1.15625 3.25l0 6.03125l-1.671875 0l0 -5.78125q0 -1.53125 -0.765625 -2.34375q-0.765625 -0.8125 -2.09375 -0.8125q-1.34375 0 -2.140625 0.84375q-0.78125 0.84375 -0.78125 2.4375l0 5.65625l-1.703125 0l0 -10.21875l1.703125 0l0 1.453125q0.5 -0.78125 1.359375 -1.203125q0.875 -0.4375 1.921875 -0.4375zm11.080627 10.53125q-1.296875 0 -2.3125 -0.453125q-1.015625 -0.453125 -1.59375 -1.265625q-0.578125 -0.8125 -0.59375 -1.875l1.8125 0q0.09375 0.90625 0.75 1.53125q0.671875 0.625 1.9375 0.625q1.203125 0 1.90625 -0.59375q0.703125 -0.609375 0.703125 -1.5625q0 -0.75 -0.421875 -1.21875q-0.40625 -0.46875 -1.015625 -0.703125q-0.609375 -0.25 -1.65625 -0.515625q-1.296875 -0.34375 -2.078125 -0.671875q-0.765625 -0.34375 -1.3125 -1.0625q-0.546875 -0.71875 -0.546875 -1.9375q0 -1.0625 0.53125 -1.875q0.546875 -0.828125 1.515625 -1.265625q0.984375 -0.453125 2.265625 -0.453125q1.828125 0 2.984375 0.921875q1.171875 0.90625 1.3125 2.421875l-1.859375 0q-0.09375 -0.75 -0.78125 -1.3125q-0.6875 -0.578125 -1.828125 -0.578125q-1.0625 0 -1.734375 0.5625q-0.671875 0.546875 -0.671875 1.53125q0 0.703125 0.390625 1.15625q0.40625 0.453125 0.984375 0.6875q0.59375 0.21875 1.65625 0.53125q1.296875 0.34375 2.078125 0.6875q0.78125 0.34375 1.34375 1.0625q0.5625 0.71875 0.5625 1.953125q0 0.953125 -0.515625 1.796875q-0.5 0.828125 -1.484375 1.359375q-0.984375 0.515625 -2.328125 0.515625zm10.951233 0q-1.296875 0 -2.3125 -0.453125q-1.015625 -0.453125 -1.59375 -1.265625q-0.578125 -0.8125 -0.59375 -1.875l1.8125 0q0.09375 0.90625 0.75 1.53125q0.671875 0.625 1.9375 0.625q1.203125 0 1.90625 -0.59375q0.703125 -0.609375 0.703125 -1.5625q0 -0.75 -0.421875 -1.21875q-0.40625 -0.46875 -1.015625 -0.703125q-0.609375 -0.25 -1.65625 -0.515625q-1.296875 -0.34375 -2.078125 -0.671875q-0.765625 -0.34375 -1.3125 -1.0625q-0.546875 -0.71875 -0.546875 -1.9375q0 -1.0625 0.53125 -1.875q0.546875 -0.828125 1.515625 -1.265625q0.984375 -0.453125 2.265625 -0.453125q1.828125 0 2.984375 0.921875q1.171875 0.90625 1.3125 2.421875l-1.859375 0q-0.09375 -0.75 -0.78125 -1.3125q-0.6875 -0.578125 -1.828125 -0.578125q-1.0625 0 -1.734375 0.5625q-0.671875 0.546875 -0.671875 1.53125q0 0.703125 0.390625 1.15625q0.40625 0.453125 0.984375 0.6875q0.59375 0.21875 1.65625 0.53125q1.296875 0.34375 2.078125 0.6875q0.78125 0.34375 1.34375 1.0625q0.5625 0.71875 0.5625 1.953125q0 0.953125 -0.515625 1.796875q-0.5 0.828125 -1.484375 1.359375q-0.984375 0.515625 -2.328125 0.515625zm8.529358 -1.5l4.546875 0l0 1.375l-6.25 0l0 -13.0l1.703125 0l0 11.625zm15.79071 1.546875q-1.4375 0 -2.609375 -0.65625q-1.15625 -0.65625 -1.828125 -1.859375q-0.65625 -1.203125 -0.65625 -2.78125q0 -1.578125 0.6875 -2.78125q0.6875 -1.203125 1.859375 -1.84375q1.171875 -0.640625 2.625 -0.640625q1.453125 0 2.625 0.640625q1.1875 0.640625 1.859375 1.84375q0.6875 1.1875 0.6875 2.78125q0 1.578125 -0.703125 2.78125q-0.703125 1.203125 -1.90625 1.859375q-1.1875 0.65625 -2.640625 0.65625zm0 -1.5q0.921875 0 1.71875 -0.421875q0.796875 -0.4375 1.296875 -1.296875q0.5 -0.859375 0.5 -2.078125q0 -1.234375 -0.484375 -2.09375q-0.484375 -0.859375 -1.28125 -1.28125q-0.78125 -0.421875 -1.6875 -0.421875q-0.9375 0 -1.71875 0.421875q-0.765625 0.421875 -1.234375 1.28125q-0.46875 0.859375 -0.46875 2.09375q0 1.25 0.453125 2.109375q0.46875 0.84375 1.234375 1.265625q0.765625 0.421875 1.671875 0.421875zm12.471252 -9.078125q1.859375 0 3.015625 1.125q1.15625 1.125 1.15625 3.25l0 6.03125l-1.671875 0l0 -5.78125q0 -1.53125 -0.765625 -2.34375q-0.765625 -0.8125 -2.09375 -0.8125q-1.34375 0 -2.140625 0.84375q-0.78125 0.84375 -0.78125 2.4375l0 5.65625l-1.703125 0l0 -10.21875l1.703125 0l0 1.453125q0.5 -0.78125 1.359375 -1.203125q0.875 -0.4375 1.921875 -0.4375zm25.124329 -2.5l0 12.90625l-1.703125 0l0 -9.625l-4.28125 9.625l-1.203125 0l-4.296875 -9.640625l0 9.640625l-1.703125 0l0 -12.90625l1.828125 0l4.78125 10.671875l4.765625 -10.671875l1.8125 0zm7.3286743 13.078125q-1.4375 0 -2.609375 -0.65625q-1.15625 -0.65625 -1.828125 -1.859375q-0.65625 -1.203125 -0.65625 -2.78125q0 -1.578125 0.6875 -2.78125q0.6875 -1.203125 1.859375 -1.84375q1.171875 -0.640625 2.625 -0.640625q1.453125 0 2.625 0.640625q1.1875 0.640625 1.859375 1.84375q0.6875 1.1875 0.6875 2.78125q0 1.578125 -0.703125 2.78125q-0.703125 1.203125 -1.90625 1.859375q-1.1875 0.65625 -2.640625 0.65625zm0 -1.5q0.921875 0 1.71875 -0.421875q0.796875 -0.4375 1.296875 -1.296875q0.5 -0.859375 0.5 -2.078125q0 -1.234375 -0.484375 -2.09375q-0.484375 -0.859375 -1.28125 -1.28125q-0.78125 -0.421875 -1.6875 -0.421875q-0.9375 0 -1.71875 0.421875q-0.765625 0.421875 -1.234375 1.28125q-0.46875 0.859375 -0.46875 2.09375q0 1.25 0.453125 2.109375q0.46875 0.84375 1.234375 1.265625q0.765625 0.421875 1.671875 0.421875zm9.190002 -7.234375q0.4375 -0.875 1.265625 -1.359375q0.84375 -0.484375 2.03125 -0.484375l0 1.75l-0.453125 0q-2.84375 0 -2.84375 3.09375l0 5.5625l-1.703125 0l0 -10.21875l1.703125 0l0 1.65625zm14.583801 3.0625q0 0.484375 -0.0625 1.015625l-8.171875 0q0.09375 1.515625 1.03125 2.375q0.953125 0.84375 2.296875 0.84375q1.09375 0 1.828125 -0.515625q0.75 -0.515625 1.046875 -1.375l1.828125 0q-0.40625 1.484375 -1.640625 2.40625q-1.234375 0.921875 -3.0625 0.921875q-1.453125 0 -2.609375 -0.65625q-1.140625 -0.65625 -1.796875 -1.859375q-0.65625 -1.203125 -0.65625 -2.78125q0 -1.59375 0.640625 -2.78125q0.640625 -1.203125 1.78125 -1.84375q1.140625 -0.640625 2.640625 -0.640625q1.453125 0 2.5625 0.640625q1.125 0.625 1.734375 1.734375q0.609375 1.109375 0.609375 2.515625zm-1.75 -0.359375q0 -0.96875 -0.4375 -1.671875q-0.421875 -0.703125 -1.171875 -1.0625q-0.734375 -0.359375 -1.625 -0.359375q-1.28125 0 -2.1875 0.828125q-0.90625 0.8125 -1.03125 2.265625l6.453125 0zm5.6918945 -7.953125l0 13.8125l-1.703125 0l0 -13.8125l1.703125 0zm4.5894165 0l0 13.8125l-1.703125 0l0 -13.8125l1.703125 0zm7.3394165 13.984375q-1.4375 0 -2.609375 -0.65625q-1.15625 -0.65625 -1.828125 -1.859375q-0.65625 -1.203125 -0.65625 -2.78125q0 -1.578125 0.6875 -2.78125q0.6875 -1.203125 1.859375 -1.84375q1.171875 -0.640625 2.625 -0.640625q1.453125 0 2.625 0.640625q1.1875 0.640625 1.859375 1.84375q0.6875 1.1875 0.6875 2.78125q0 1.578125 -0.703125 2.78125q-0.703125 1.203125 -1.90625 1.859375q-1.1875 0.65625 -2.640625 0.65625zm0 -1.5q0.921875 0 1.71875 -0.421875q0.796875 -0.4375 1.296875 -1.296875q0.5 -0.859375 0.5 -2.078125q0 -1.234375 -0.484375 -2.09375q-0.484375 -0.859375 -1.28125 -1.28125q-0.78125 -0.421875 -1.6875 -0.421875q-0.9375 0 -1.71875 0.421875q-0.765625 0.421875 -1.234375 1.28125q-0.46875 0.859375 -0.46875 2.09375q0 1.25 0.453125 2.109375q0.46875 0.84375 1.234375 1.265625q0.765625 0.421875 1.671875 0.421875zm11.827515 -5.1875q0 -1.890625 0.859375 -3.40625q0.859375 -1.53125 2.34375 -2.390625q1.484375 -0.859375 3.296875 -0.859375q2.125 0 3.703125 1.03125q1.59375 1.015625 2.328125 2.90625l-2.046875 0q-0.53125 -1.171875 -1.546875 -1.796875q-1.015625 -0.640625 -2.4375 -0.640625q-1.359375 0 -2.453125 0.640625q-1.078125 0.625 -1.703125 1.796875q-0.609375 1.15625 -0.609375 2.71875q0 1.546875 0.609375 2.71875q0.625 1.171875 1.703125 1.8125q1.09375 0.625 2.453125 0.625q1.421875 0 2.4375 -0.625q1.015625 -0.625 1.546875 -1.796875l2.046875 0q-0.734375 1.859375 -2.328125 2.875q-1.578125 1.015625 -3.703125 1.015625q-1.8125 0 -3.296875 -0.84375q-1.484375 -0.84375 -2.34375 -2.359375q-0.859375 -1.515625 -0.859375 -3.421875zm23.730774 -2.6875q0 1.625 -1.109375 2.703125q-1.109375 1.078125 -3.375 1.078125l-2.5 0l0 5.421875l-1.703125 0l0 -13.0l4.203125 0q2.1875 0 3.328125 1.0625q1.15625 1.0625 1.15625 2.734375zm-4.484375 2.375q1.40625 0 2.078125 -0.609375q0.671875 -0.625 0.671875 -1.765625q0 -2.40625 -2.75 -2.40625l-2.5 0l0 4.78125l2.5 0zm8.255066 -6.171875l0 8.21875q0 1.734375 0.84375 2.578125q0.859375 0.84375 2.375 0.84375q1.484375 0 2.328125 -0.84375q0.859375 -0.84375 0.859375 -2.578125l0 -8.21875l1.6875 0l0 8.203125q0 1.625 -0.65625 2.734375q-0.640625 1.109375 -1.75 1.65625q-1.109375 0.53125 -2.5 0.53125q-1.375 0 -2.484375 -0.53125q-1.109375 -0.546875 -1.75 -1.65625q-0.640625 -1.109375 -0.640625 -2.734375l0 -8.203125l1.6875 0z" fill-rule="nonzero"/><path fill="#cc0000" d="m533.6011 294.30402l350.2992 0l0 195.1181l-350.2992 0z" fill-rule="evenodd"/><path fill="#eeeeee" d="m575.1141 308.22403l0 13.0l-1.703125 0l0 -5.890625l-6.609375 0l0 5.890625l-1.703125 0l0 -13.0l1.703125 0l0 5.703125l6.609375 0l0 -5.703125l1.703125 0zm11.707031 2.78125l-6.171875 15.03125l-1.75 0l2.015625 -4.921875l-4.125 -10.109375l1.890625 0l3.203125 8.28125l3.171875 -8.28125l1.765625 0zm3.394104 1.890625q0.515625 -0.90625 1.515625 -1.484375q1.015625 -0.578125 2.296875 -0.578125q1.390625 0 2.484375 0.65625q1.109375 0.65625 1.734375 1.84375q0.640625 1.171875 0.640625 2.734375q0 1.5625 -0.640625 2.78125q-0.625 1.203125 -1.734375 1.875q-1.109375 0.671875 -2.484375 0.671875q-1.3125 0 -2.3125 -0.578125q-1.0 -0.578125 -1.5 -1.484375l0 1.890625l-1.703125 0l0 -13.8125l1.703125 0l0 5.484375zm6.9375 3.171875q0 -1.15625 -0.46875 -2.0q-0.46875 -0.859375 -1.265625 -1.3125q-0.78125 -0.453125 -1.734375 -0.453125q-0.9375 0 -1.734375 0.46875q-0.796875 0.453125 -1.265625 1.328125q-0.46875 0.859375 -0.46875 2.0q0 1.15625 0.46875 2.03125q0.46875 0.859375 1.265625 1.3125q0.796875 0.453125 1.734375 0.453125q0.953125 0 1.734375 -0.453125q0.796875 -0.453125 1.265625 -1.3125q0.46875 -0.875 0.46875 -2.0625zm5.6741333 -3.40625q0.4375 -0.875 1.265625 -1.359375q0.84375 -0.484375 2.03125 -0.484375l0 1.75l-0.453125 0q-2.84375 0 -2.84375 3.09375l0 5.5625l-1.703125 0l0 -10.21875l1.703125 0l0 1.65625zm6.130615 -3.328125q-0.484375 0 -0.828125 -0.328125q-0.328125 -0.34375 -0.328125 -0.828125q0 -0.484375 0.328125 -0.8125q0.34375 -0.34375 0.828125 -0.34375q0.46875 0 0.796875 0.34375q0.328125 0.328125 0.328125 0.8125q0 0.484375 -0.328125 0.828125q-0.328125 0.328125 -0.796875 0.328125zm0.828125 1.671875l0 10.21875l-1.703125 0l0 -10.21875l1.703125 0zm2.2457275 5.0625q0 -1.5625 0.640625 -2.734375q0.640625 -1.1875 1.75 -1.84375q1.109375 -0.65625 2.484375 -0.65625q1.1875 0 2.21875 0.546875q1.03125 0.546875 1.5625 1.453125l0 -5.421875l1.71875 0l0 13.8125l-1.71875 0l0 -1.921875q-0.5 0.921875 -1.484375 1.515625q-0.984375 0.578125 -2.3125 0.578125q-1.359375 0 -2.46875 -0.671875q-1.109375 -0.671875 -1.75 -1.875q-0.640625 -1.21875 -0.640625 -2.78125zm8.65625 0.03125q0 -1.15625 -0.46875 -2.015625q-0.453125 -0.859375 -1.25 -1.3125q-0.796875 -0.46875 -1.75 -0.46875q-0.953125 0 -1.734375 0.453125q-0.78125 0.453125 -1.25 1.3125q-0.46875 0.84375 -0.46875 2.0q0 1.1875 0.46875 2.0625q0.46875 0.859375 1.25 1.3125q0.78125 0.453125 1.734375 0.453125q0.953125 0 1.75 -0.453125q0.796875 -0.453125 1.25 -1.3125q0.46875 -0.875 0.46875 -2.03125zm15.467834 5.25q-1.8125 0 -3.3125 -0.84375q-1.484375 -0.84375 -2.359375 -2.359375q-0.859375 -1.53125 -0.859375 -3.4375q0 -1.890625 0.859375 -3.40625q0.875 -1.53125 2.359375 -2.375q1.5 -0.859375 3.3125 -0.859375q1.828125 0 3.3125 0.859375q1.5 0.84375 2.359375 2.359375q0.859375 1.5 0.859375 3.421875q0 1.921875 -0.859375 3.4375q-0.859375 1.515625 -2.359375 2.359375q-1.484375 0.84375 -3.3125 0.84375zm0 -1.46875q1.359375 0 2.453125 -0.625q1.09375 -0.640625 1.71875 -1.8125q0.625 -1.1875 0.625 -2.734375q0 -1.5625 -0.625 -2.71875q-0.625 -1.171875 -1.703125 -1.796875q-1.078125 -0.640625 -2.46875 -0.640625q-1.375 0 -2.46875 0.640625q-1.078125 0.625 -1.703125 1.796875q-0.625 1.15625 -0.625 2.71875q0 1.546875 0.625 2.734375q0.625 1.171875 1.71875 1.8125q1.09375 0.625 2.453125 0.625zm10.476318 -7.0q0.5 -0.875 1.5 -1.453125q1.0 -0.59375 2.3125 -0.59375q1.375 0 2.484375 0.65625q1.109375 0.65625 1.734375 1.84375q0.640625 1.171875 0.640625 2.734375q0 1.5625 -0.640625 2.78125q-0.625 1.203125 -1.734375 1.875q-1.109375 0.671875 -2.484375 0.671875q-1.296875 0 -2.296875 -0.578125q-1.0 -0.59375 -1.515625 -1.484375l0 6.734375l-1.703125 0l0 -15.0625l1.703125 0l0 1.875zm6.9375 3.1875q0 -1.15625 -0.46875 -2.0q-0.46875 -0.859375 -1.265625 -1.3125q-0.78125 -0.453125 -1.734375 -0.453125q-0.9375 0 -1.734375 0.46875q-0.796875 0.453125 -1.265625 1.328125q-0.46875 0.859375 -0.46875 2.0q0 1.15625 0.46875 2.03125q0.46875 0.859375 1.265625 1.3125q0.796875 0.453125 1.734375 0.453125q0.953125 0 1.734375 -0.453125q0.796875 -0.453125 1.265625 -1.3125q0.46875 -0.875 0.46875 -2.0625zm13.299133 -0.34375q0 0.484375 -0.0625 1.015625l-8.171875 0q0.09375 1.515625 1.03125 2.375q0.953125 0.84375 2.296875 0.84375q1.09375 0 1.828125 -0.515625q0.75 -0.515625 1.046875 -1.375l1.828125 0q-0.40625 1.484375 -1.640625 2.40625q-1.234375 0.921875 -3.0625 0.921875q-1.453125 0 -2.609375 -0.65625q-1.140625 -0.65625 -1.796875 -1.859375q-0.65625 -1.203125 -0.65625 -2.78125q0 -1.59375 0.640625 -2.78125q0.640625 -1.203125 1.78125 -1.84375q1.140625 -0.640625 2.640625 -0.640625q1.453125 0 2.5625 0.640625q1.125 0.625 1.734375 1.734375q0.609375 1.109375 0.609375 2.515625zm-1.75 -0.359375q0 -0.96875 -0.4375 -1.671875q-0.421875 -0.703125 -1.171875 -1.0625q-0.734375 -0.359375 -1.625 -0.359375q-1.28125 0 -2.1875 0.828125q-0.90625 0.8125 -1.03125 2.265625l6.453125 0zm8.973145 -4.546875q1.859375 0 3.015625 1.125q1.15625 1.125 1.15625 3.25l0 6.03125l-1.671875 0l0 -5.78125q0 -1.53125 -0.765625 -2.34375q-0.765625 -0.8125 -2.09375 -0.8125q-1.34375 0 -2.140625 0.84375q-0.78125 0.84375 -0.78125 2.4375l0 5.65625l-1.703125 0l0 -10.21875l1.703125 0l0 1.453125q0.5 -0.78125 1.359375 -1.203125q0.875 -0.4375 1.921875 -0.4375zm11.080627 10.53125q-1.296875 0 -2.3125 -0.453125q-1.015625 -0.453125 -1.59375 -1.265625q-0.578125 -0.8125 -0.59375 -1.875l1.8125 0q0.09375 0.90625 0.75 1.53125q0.671875 0.625 1.9375 0.625q1.203125 0 1.90625 -0.59375q0.703125 -0.609375 0.703125 -1.5625q0 -0.75 -0.421875 -1.21875q-0.40625 -0.46875 -1.015625 -0.703125q-0.609375 -0.25 -1.65625 -0.515625q-1.296875 -0.34375 -2.078125 -0.671875q-0.765625 -0.34375 -1.3125 -1.0625q-0.546875 -0.71875 -0.546875 -1.9375q0 -1.0625 0.53125 -1.875q0.546875 -0.828125 1.515625 -1.265625q0.984375 -0.453125 2.265625 -0.453125q1.828125 0 2.984375 0.921875q1.171875 0.90625 1.3125 2.421875l-1.859375 0q-0.09375 -0.75 -0.78125 -1.3125q-0.6875 -0.578125 -1.828125 -0.578125q-1.0625 0 -1.734375 0.5625q-0.671875 0.546875 -0.671875 1.53125q0 0.703125 0.390625 1.15625q0.40625 0.453125 0.984375 0.6875q0.59375 0.21875 1.65625 0.53125q1.296875 0.34375 2.078125 0.6875q0.78125 0.34375 1.34375 1.0625q0.5625 0.71875 0.5625 1.953125q0 0.953125 -0.515625 1.796875q-0.5 0.828125 -1.484375 1.359375q-0.984375 0.515625 -2.328125 0.515625zm10.951172 0q-1.296875 0 -2.3125 -0.453125q-1.015625 -0.453125 -1.59375 -1.265625q-0.578125 -0.8125 -0.59375 -1.875l1.8125 0q0.09375 0.90625 0.75 1.53125q0.671875 0.625 1.9375 0.625q1.203125 0 1.90625 -0.59375q0.703125 -0.609375 0.703125 -1.5625q0 -0.75 -0.421875 -1.21875q-0.40625 -0.46875 -1.015625 -0.703125q-0.609375 -0.25 -1.65625 -0.515625q-1.296875 -0.34375 -2.078125 -0.671875q-0.765625 -0.34375 -1.3125 -1.0625q-0.546875 -0.71875 -0.546875 -1.9375q0 -1.0625 0.53125 -1.875q0.546875 -0.828125 1.515625 -1.265625q0.984375 -0.453125 2.265625 -0.453125q1.828125 0 2.984375 0.921875q1.171875 0.90625 1.3125 2.421875l-1.859375 0q-0.09375 -0.75 -0.78125 -1.3125q-0.6875 -0.578125 -1.828125 -0.578125q-1.0625 0 -1.734375 0.5625q-0.671875 0.546875 -0.671875 1.53125q0 0.703125 0.390625 1.15625q0.40625 0.453125 0.984375 0.6875q0.59375 0.21875 1.65625 0.53125q1.296875 0.34375 2.078125 0.6875q0.78125 0.34375 1.34375 1.0625q0.5625 0.71875 0.5625 1.953125q0 0.953125 -0.515625 1.796875q-0.5 0.828125 -1.484375 1.359375q-0.984375 0.515625 -2.328125 0.515625zm8.529358 -1.5l4.546875 0l0 1.375l-6.25 0l0 -13.0l1.703125 0l0 11.625zm15.79071 1.546875q-1.4375 0 -2.609375 -0.65625q-1.15625 -0.65625 -1.828125 -1.859375q-0.65625 -1.203125 -0.65625 -2.78125q0 -1.578125 0.6875 -2.78125q0.6875 -1.203125 1.859375 -1.84375q1.171875 -0.640625 2.625 -0.640625q1.453125 0 2.625 0.640625q1.1875 0.640625 1.859375 1.84375q0.6875 1.1875 0.6875 2.78125q0 1.578125 -0.703125 2.78125q-0.703125 1.203125 -1.90625 1.859375q-1.1875 0.65625 -2.640625 0.65625zm0 -1.5q0.921875 0 1.71875 -0.421875q0.796875 -0.4375 1.296875 -1.296875q0.5 -0.859375 0.5 -2.078125q0 -1.234375 -0.484375 -2.09375q-0.484375 -0.859375 -1.28125 -1.28125q-0.78125 -0.421875 -1.6875 -0.421875q-0.9375 0 -1.71875 0.421875q-0.765625 0.421875 -1.234375 1.28125q-0.46875 0.859375 -0.46875 2.09375q0 1.25 0.453125 2.109375q0.46875 0.84375 1.234375 1.265625q0.765625 0.421875 1.671875 0.421875zm12.471252 -9.078125q1.859375 0 3.015625 1.125q1.15625 1.125 1.15625 3.25l0 6.03125l-1.671875 0l0 -5.78125q0 -1.53125 -0.765625 -2.34375q-0.765625 -0.8125 -2.09375 -0.8125q-1.34375 0 -2.140625 0.84375q-0.78125 0.84375 -0.78125 2.4375l0 5.65625l-1.703125 0l0 -10.21875l1.703125 0l0 1.453125q0.5 -0.78125 1.359375 -1.203125q0.875 -0.4375 1.921875 -0.4375zm25.12439 -2.5l0 12.90625l-1.703125 0l0 -9.625l-4.28125 9.625l-1.203125 0l-4.296875 -9.640625l0 9.640625l-1.703125 0l0 -12.90625l1.828125 0l4.78125 10.671875l4.765625 -10.671875l1.8125 0zm7.3286133 13.078125q-1.4375 0 -2.609375 -0.65625q-1.15625 -0.65625 -1.828125 -1.859375q-0.65625 -1.203125 -0.65625 -2.78125q0 -1.578125 0.6875 -2.78125q0.6875 -1.203125 1.859375 -1.84375q1.171875 -0.640625 2.625 -0.640625q1.453125 0 2.625 0.640625q1.1875 0.640625 1.859375 1.84375q0.6875 1.1875 0.6875 2.78125q0 1.578125 -0.703125 2.78125q-0.703125 1.203125 -1.90625 1.859375q-1.1875 0.65625 -2.640625 0.65625zm0 -1.5q0.921875 0 1.71875 -0.421875q0.796875 -0.4375 1.296875 -1.296875q0.5 -0.859375 0.5 -2.078125q0 -1.234375 -0.484375 -2.09375q-0.484375 -0.859375 -1.28125 -1.28125q-0.78125 -0.421875 -1.6875 -0.421875q-0.9375 0 -1.71875 0.421875q-0.765625 0.421875 -1.234375 1.28125q-0.46875 0.859375 -0.46875 2.09375q0 1.25 0.453125 2.109375q0.46875 0.84375 1.234375 1.265625q0.765625 0.421875 1.671875 0.421875zm9.190002 -7.234375q0.4375 -0.875 1.265625 -1.359375q0.84375 -0.484375 2.03125 -0.484375l0 1.75l-0.453125 0q-2.84375 0 -2.84375 3.09375l0 5.5625l-1.703125 0l0 -10.21875l1.703125 0l0 1.65625zm14.583801 3.0625q0 0.484375 -0.0625 1.015625l-8.171875 0q0.09375 1.515625 1.03125 2.375q0.953125 0.84375 2.296875 0.84375q1.09375 0 1.828125 -0.515625q0.75 -0.515625 1.046875 -1.375l1.828125 0q-0.40625 1.484375 -1.640625 2.40625q-1.234375 0.921875 -3.0625 0.921875q-1.453125 0 -2.609375 -0.65625q-1.140625 -0.65625 -1.796875 -1.859375q-0.65625 -1.203125 -0.65625 -2.78125q0 -1.59375 0.640625 -2.78125q0.640625 -1.203125 1.78125 -1.84375q1.140625 -0.640625 2.640625 -0.640625q1.453125 0 2.5625 0.640625q1.125 0.625 1.734375 1.734375q0.609375 1.109375 0.609375 2.515625zm-1.75 -0.359375q0 -0.96875 -0.4375 -1.671875q-0.421875 -0.703125 -1.171875 -1.0625q-0.734375 -0.359375 -1.625 -0.359375q-1.28125 0 -2.1875 0.828125q-0.90625 0.8125 -1.03125 2.265625l6.453125 0zm5.6918945 -7.953125l0 13.8125l-1.703125 0l0 -13.8125l1.703125 0zm4.5894165 0l0 13.8125l-1.703125 0l0 -13.8125l1.703125 0zm7.3394775 13.984375q-1.4375 0 -2.609375 -0.65625q-1.15625 -0.65625 -1.828125 -1.859375q-0.65625 -1.203125 -0.65625 -2.78125q0 -1.578125 0.6875 -2.78125q0.6875 -1.203125 1.859375 -1.84375q1.171875 -0.640625 2.625 -0.640625q1.453125 0 2.625 0.640625q1.1875 0.640625 1.859375 1.84375q0.6875 1.1875 0.6875 2.78125q0 1.578125 -0.703125 2.78125q-0.703125 1.203125 -1.90625 1.859375q-1.1875 0.65625 -2.640625 0.65625zm0 -1.5q0.921875 0 1.71875 -0.421875q0.796875 -0.4375 1.296875 -1.296875q0.5 -0.859375 0.5 -2.078125q0 -1.234375 -0.484375 -2.09375q-0.484375 -0.859375 -1.28125 -1.28125q-0.78125 -0.421875 -1.6875 -0.421875q-0.9375 0 -1.71875 0.421875q-0.765625 0.421875 -1.234375 1.28125q-0.46875 0.859375 -0.46875 2.09375q0 1.25 0.453125 2.109375q0.46875 0.84375 1.234375 1.265625q0.765625 0.421875 1.671875 0.421875zm11.827454 -5.1875q0 -1.890625 0.859375 -3.40625q0.859375 -1.53125 2.34375 -2.390625q1.484375 -0.859375 3.296875 -0.859375q2.125 0 3.703125 1.03125q1.59375 1.015625 2.328125 2.90625l-2.046875 0q-0.53125 -1.171875 -1.546875 -1.796875q-1.015625 -0.640625 -2.4375 -0.640625q-1.359375 0 -2.453125 0.640625q-1.078125 0.625 -1.703125 1.796875q-0.609375 1.15625 -0.609375 2.71875q0 1.546875 0.609375 2.71875q0.625 1.171875 1.703125 1.8125q1.09375 0.625 2.453125 0.625q1.421875 0 2.4375 -0.625q1.015625 -0.625 1.546875 -1.796875l2.046875 0q-0.734375 1.859375 -2.328125 2.875q-1.578125 1.015625 -3.703125 1.015625q-1.8125 0 -3.296875 -0.84375q-1.484375 -0.84375 -2.34375 -2.359375q-0.859375 -1.515625 -0.859375 -3.421875zm23.730774 -2.6875q0 1.625 -1.109375 2.703125q-1.109375 1.078125 -3.375 1.078125l-2.5 0l0 5.421875l-1.703125 0l0 -13.0l4.203125 0q2.1875 0 3.328125 1.0625q1.15625 1.0625 1.15625 2.734375zm-4.484375 2.375q1.40625 0 2.078125 -0.609375q0.671875 -0.625 0.671875 -1.765625q0 -2.40625 -2.75 -2.40625l-2.5 0l0 4.78125l2.5 0zm8.255066 -6.171875l0 8.21875q0 1.734375 0.84375 2.578125q0.859375 0.84375 2.375 0.84375q1.484375 0 2.328125 -0.84375q0.859375 -0.84375 0.859375 -2.578125l0 -8.21875l1.6875 0l0 8.203125q0 1.625 -0.65625 2.734375q-0.640625 1.109375 -1.75 1.65625q-1.109375 0.53125 -2.5 0.53125q-1.375 0 -2.484375 -0.53125q-1.109375 -0.546875 -1.75 -1.65625q-0.640625 -1.109375 -0.640625 -2.734375l0 -8.203125l1.6875 0z" fill-rule="nonzero"/><path fill="#666666" d="m585.93176 150.73491l245.63782 0l0 56.692917l-245.63782 0z" fill-rule="evenodd"/><path fill="#ffffff" d="m646.214 179.50136q0 -3.328125 1.78125 -5.203125q1.78125 -1.890625 4.609375 -1.890625q1.84375 0 3.328125 0.890625q1.484375 0.875 2.265625 2.46875q0.78125 1.578125 0.78125 3.578125q0 2.03125 -0.828125 3.640625q-0.8125 1.59375 -2.3125 2.421875q-1.5 0.828125 -3.25 0.828125q-1.875 0 -3.359375 -0.90625q-1.484375 -0.921875 -2.25 -2.5q-0.765625 -1.578125 -0.765625 -3.328125zm1.8125 0.015625q0 2.421875 1.296875 3.8125q1.296875 1.390625 3.265625 1.390625q2.0 0 3.28125 -1.40625q1.28125 -1.40625 1.28125 -3.984375q0 -1.625 -0.546875 -2.84375q-0.546875 -1.21875 -1.609375 -1.875q-1.0625 -0.671875 -2.375 -0.671875q-1.890625 0 -3.25 1.296875q-1.34375 1.28125 -1.34375 4.28125zm13.0271 10.1875l0 -13.375l1.484375 0l0 1.25q0.53125 -0.734375 1.1875 -1.09375q0.671875 -0.375 1.625 -0.375q1.234375 0 2.171875 0.640625q0.953125 0.625 1.4375 1.796875q0.484375 1.15625 0.484375 2.546875q0 1.484375 -0.53125 2.671875q-0.53125 1.1875 -1.546875 1.828125q-1.015625 0.625 -2.140625 0.625q-0.8125 0 -1.46875 -0.34375q-0.65625 -0.34375 -1.0625 -0.875l0 4.703125l-1.640625 0zm1.484375 -8.484375q0 1.859375 0.75 2.765625q0.765625 0.890625 1.828125 0.890625q1.09375 0 1.875 -0.921875q0.78125 -0.9375 0.78125 -2.875q0 -1.84375 -0.765625 -2.765625q-0.75 -0.921875 -1.8125 -0.921875q-1.046875 0 -1.859375 0.984375q-0.796875 0.96875 -0.796875 2.84375zm15.516296 1.671875l1.6875 0.203125q-0.40625 1.484375 -1.484375 2.3125q-1.078125 0.8125 -2.765625 0.8125q-2.125 0 -3.375 -1.296875q-1.234375 -1.3125 -1.234375 -3.671875q0 -2.453125 1.25 -3.796875q1.265625 -1.34375 3.265625 -1.34375q1.9375 0 3.15625 1.328125q1.234375 1.3125 1.234375 3.703125q0 0.15625 0 0.4375l-7.21875 0q0.09375 1.59375 0.90625 2.453125q0.8125 0.84375 2.015625 0.84375q0.90625 0 1.546875 -0.46875q0.640625 -0.484375 1.015625 -1.515625zm-5.390625 -2.65625l5.40625 0q-0.109375 -1.21875 -0.625 -1.828125q-0.78125 -0.953125 -2.03125 -0.953125q-1.125 0 -1.90625 0.765625q-0.765625 0.75 -0.84375 2.015625zm9.141357 5.765625l0 -9.671875l1.46875 0l0 1.375q1.0625 -1.59375 3.078125 -1.59375q0.875 0 1.609375 0.3125q0.734375 0.3125 1.09375 0.828125q0.375 0.5 0.515625 1.203125q0.09375 0.453125 0.09375 1.59375l0 5.953125l-1.640625 0l0 -5.890625q0 -1.0 -0.203125 -1.484375q-0.1875 -0.5 -0.671875 -0.796875q-0.484375 -0.296875 -1.140625 -0.296875q-1.046875 0 -1.8125 0.671875q-0.75 0.65625 -0.75 2.515625l0 5.28125l-1.640625 0zm9.985107 -4.296875l1.65625 -0.140625q0.125 1.0 0.546875 1.640625q0.4375 0.640625 1.34375 1.046875q0.921875 0.390625 2.0625 0.390625q1.0 0 1.78125 -0.296875q0.78125 -0.296875 1.15625 -0.8125q0.375 -0.53125 0.375 -1.15625q0 -0.625 -0.375 -1.09375q-0.359375 -0.46875 -1.1875 -0.796875q-0.546875 -0.203125 -2.390625 -0.640625q-1.828125 -0.453125 -2.5625 -0.84375q-0.96875 -0.5 -1.4375 -1.234375q-0.46875 -0.75 -0.46875 -1.671875q0 -1.0 0.578125 -1.875q0.578125 -0.890625 1.671875 -1.34375q1.109375 -0.453125 2.453125 -0.453125q1.484375 0 2.609375 0.484375q1.140625 0.46875 1.75 1.40625q0.609375 0.921875 0.65625 2.09375l-1.6875 0.125q-0.140625 -1.265625 -0.9375 -1.90625q-0.78125 -0.65625 -2.3125 -0.65625q-1.609375 0 -2.34375 0.59375q-0.734375 0.59375 -0.734375 1.421875q0 0.71875 0.53125 1.171875q0.5 0.46875 2.65625 0.96875q2.15625 0.484375 2.953125 0.84375q1.171875 0.53125 1.71875 1.359375q0.5625 0.828125 0.5625 1.90625q0 1.0625 -0.609375 2.015625q-0.609375 0.9375 -1.75 1.46875q-1.140625 0.515625 -2.578125 0.515625q-1.8125 0 -3.046875 -0.53125q-1.21875 -0.53125 -1.921875 -1.59375q-0.6875 -1.0625 -0.71875 -2.40625zm12.4435425 0l1.65625 -0.140625q0.125 1.0 0.546875 1.640625q0.4375 0.640625 1.34375 1.046875q0.921875 0.390625 2.0625 0.390625q1.0 0 1.78125 -0.296875q0.78125 -0.296875 1.15625 -0.8125q0.375 -0.53125 0.375 -1.15625q0 -0.625 -0.375 -1.09375q-0.359375 -0.46875 -1.1875 -0.796875q-0.546875 -0.203125 -2.390625 -0.640625q-1.828125 -0.453125 -2.5625 -0.84375q-0.96875 -0.5 -1.4375 -1.234375q-0.46875 -0.75 -0.46875 -1.671875q0 -1.0 0.578125 -1.875q0.578125 -0.890625 1.671875 -1.34375q1.109375 -0.453125 2.453125 -0.453125q1.484375 0 2.609375 0.484375q1.140625 0.46875 1.75 1.40625q0.609375 0.921875 0.65625 2.09375l-1.6875 0.125q-0.140625 -1.265625 -0.9375 -1.90625q-0.78125 -0.65625 -2.3125 -0.65625q-1.609375 0 -2.34375 0.59375q-0.734375 0.59375 -0.734375 1.421875q0 0.71875 0.53125 1.171875q0.5 0.46875 2.65625 0.96875q2.15625 0.484375 2.953125 0.84375q1.171875 0.53125 1.71875 1.359375q0.5625 0.828125 0.5625 1.90625q0 1.0625 -0.609375 2.015625q-0.609375 0.9375 -1.75 1.46875q-1.140625 0.515625 -2.578125 0.515625q-1.8125 0 -3.046875 -0.53125q-1.21875 -0.53125 -1.921875 -1.59375q-0.6875 -1.0625 -0.71875 -2.40625zm12.9592285 4.296875l0 -13.359375l1.78125 0l0 11.78125l6.5625 0l0 1.578125l-8.34375 0zm14.288147 -3.53125l1.640625 -0.21875q0.28125 1.40625 0.953125 2.015625q0.6875 0.609375 1.65625 0.609375q1.15625 0 1.953125 -0.796875q0.796875 -0.796875 0.796875 -1.984375q0 -1.125 -0.734375 -1.859375q-0.734375 -0.734375 -1.875 -0.734375q-0.46875 0 -1.15625 0.171875l0.1875 -1.4375q0.15625 0.015625 0.265625 0.015625q1.046875 0 1.875 -0.546875q0.84375 -0.546875 0.84375 -1.671875q0 -0.90625 -0.609375 -1.5q-0.609375 -0.59375 -1.578125 -0.59375q-0.953125 0 -1.59375 0.609375q-0.640625 0.59375 -0.8125 1.796875l-1.640625 -0.296875q0.296875 -1.640625 1.359375 -2.546875q1.0625 -0.90625 2.65625 -0.90625q1.09375 0 2.0 0.46875q0.921875 0.46875 1.40625 1.28125q0.5 0.8125 0.5 1.71875q0 0.859375 -0.46875 1.578125q-0.46875 0.703125 -1.375 1.125q1.1875 0.28125 1.84375 1.140625q0.65625 0.859375 0.65625 2.15625q0 1.734375 -1.28125 2.953125q-1.265625 1.21875 -3.21875 1.21875q-1.765625 0 -2.921875 -1.046875q-1.15625 -1.046875 -1.328125 -2.71875zm11.281982 3.53125l0 -1.875l1.875 0l0 1.875l-1.875 0zm4.2770386 -6.59375q0 -2.359375 0.484375 -3.796875q0.484375 -1.453125 1.4375 -2.234375q0.96875 -0.78125 2.421875 -0.78125q1.078125 0 1.890625 0.4375q0.8125 0.421875 1.328125 1.25q0.53125 0.8125 0.828125 1.984375q0.3125 1.15625 0.3125 3.140625q0 2.359375 -0.484375 3.8125q-0.484375 1.4375 -1.453125 2.234375q-0.953125 0.78125 -2.421875 0.78125q-1.921875 0 -3.03125 -1.390625q-1.3125 -1.671875 -1.3125 -5.4375zm1.671875 0q0 3.296875 0.765625 4.390625q0.78125 1.078125 1.90625 1.078125q1.140625 0 1.90625 -1.09375q0.765625 -1.09375 0.765625 -4.375q0 -3.296875 -0.765625 -4.375q-0.765625 -1.078125 -1.921875 -1.078125q-1.125 0 -1.796875 0.953125q-0.859375 1.21875 -0.859375 4.5zm9.610107 6.59375l0 -1.875l1.875 0l0 1.875l-1.875 0zm12.886414 -1.578125l0 1.578125l-8.828125 0q-0.015625 -0.59375 0.1875 -1.140625q0.34375 -0.90625 1.078125 -1.78125q0.75 -0.875 2.15625 -2.015625q2.171875 -1.78125 2.9375 -2.828125q0.765625 -1.046875 0.765625 -1.96875q0 -0.984375 -0.703125 -1.640625q-0.6875 -0.671875 -1.8125 -0.671875q-1.1875 0 -1.90625 0.71875q-0.703125 0.703125 -0.703125 1.953125l-1.6875 -0.171875q0.171875 -1.890625 1.296875 -2.875q1.140625 -0.984375 3.03125 -0.984375q1.921875 0 3.046875 1.0625q1.125 1.0625 1.125 2.640625q0 0.796875 -0.328125 1.578125q-0.328125 0.78125 -1.09375 1.640625q-0.75 0.84375 -2.53125 2.34375q-1.46875 1.234375 -1.890625 1.6875q-0.421875 0.4375 -0.6875 0.875l6.546875 0z" fill-rule="nonzero"/><path fill="#666666" d="m589.57745 377.5013l245.63776 0l0 56.6929l-245.63776 0z" fill-rule="evenodd"/><path fill="#ffffff" d="m649.8597 406.26776q0 -3.328125 1.78125 -5.203125q1.78125 -1.890625 4.609375 -1.890625q1.84375 0 3.328125 0.890625q1.484375 0.875 2.265625 2.46875q0.78125 1.578125 0.78125 3.578125q0 2.03125 -0.828125 3.640625q-0.8125 1.59375 -2.3125 2.421875q-1.5 0.828125 -3.25 0.828125q-1.875 0 -3.359375 -0.90625q-1.484375 -0.921875 -2.25 -2.5q-0.765625 -1.578125 -0.765625 -3.328125zm1.8125 0.015625q0 2.421875 1.296875 3.8125q1.296875 1.390625 3.265625 1.390625q2.0 0 3.28125 -1.40625q1.28125 -1.40625 1.28125 -3.984375q0 -1.625 -0.546875 -2.84375q-0.546875 -1.21875 -1.609375 -1.875q-1.0625 -0.671875 -2.375 -0.671875q-1.890625 0 -3.25 1.296875q-1.34375 1.28125 -1.34375 4.28125zm13.027039 10.1875l0 -13.375l1.484375 0l0 1.25q0.53125 -0.734375 1.1875 -1.09375q0.671875 -0.375 1.625 -0.375q1.234375 0 2.171875 0.640625q0.953125 0.625 1.4375 1.796875q0.484375 1.15625 0.484375 2.546875q0 1.484375 -0.53125 2.671875q-0.53125 1.1875 -1.546875 1.828125q-1.015625 0.625 -2.140625 0.625q-0.8125 0 -1.46875 -0.34375q-0.65625 -0.34375 -1.0625 -0.875l0 4.703125l-1.640625 0zm1.484375 -8.484375q0 1.859375 0.75 2.765625q0.765625 0.890625 1.828125 0.890625q1.09375 0 1.875 -0.921875q0.78125 -0.9375 0.78125 -2.875q0 -1.84375 -0.765625 -2.765625q-0.75 -0.921875 -1.8125 -0.921875q-1.046875 0 -1.859375 0.984375q-0.796875 0.96875 -0.796875 2.84375zm15.516357 1.671875l1.6875 0.203125q-0.40625 1.484375 -1.484375 2.3125q-1.078125 0.8125 -2.765625 0.8125q-2.125 0 -3.375 -1.296875q-1.234375 -1.3125 -1.234375 -3.671875q0 -2.453125 1.25 -3.796875q1.265625 -1.34375 3.265625 -1.34375q1.9375 0 3.15625 1.328125q1.234375 1.3125 1.234375 3.703125q0 0.15625 0 0.4375l-7.21875 0q0.09375 1.59375 0.90625 2.453125q0.8125 0.84375 2.015625 0.84375q0.90625 0 1.546875 -0.46875q0.640625 -0.484375 1.015625 -1.515625zm-5.390625 -2.65625l5.40625 0q-0.109375 -1.21875 -0.625 -1.828125q-0.78125 -0.953125 -2.03125 -0.953125q-1.125 0 -1.90625 0.765625q-0.765625 0.75 -0.84375 2.015625zm9.141357 5.765625l0 -9.671875l1.46875 0l0 1.375q1.0625 -1.59375 3.078125 -1.59375q0.875 0 1.609375 0.3125q0.734375 0.3125 1.09375 0.828125q0.375 0.5 0.515625 1.203125q0.09375 0.453125 0.09375 1.59375l0 5.953125l-1.640625 0l0 -5.890625q0 -1.0 -0.203125 -1.484375q-0.1875 -0.5 -0.671875 -0.796875q-0.484375 -0.296875 -1.140625 -0.296875q-1.046875 0 -1.8125 0.671875q-0.75 0.65625 -0.75 2.515625l0 5.28125l-1.640625 0zm9.985046 -4.296875l1.65625 -0.140625q0.125 1.0 0.546875 1.640625q0.4375 0.640625 1.34375 1.046875q0.921875 0.390625 2.0625 0.390625q1.0 0 1.78125 -0.296875q0.78125 -0.296875 1.15625 -0.8125q0.375 -0.53125 0.375 -1.15625q0 -0.625 -0.375 -1.09375q-0.359375 -0.46875 -1.1875 -0.796875q-0.546875 -0.203125 -2.390625 -0.640625q-1.828125 -0.453125 -2.5625 -0.84375q-0.96875 -0.5 -1.4375 -1.234375q-0.46875 -0.75 -0.46875 -1.671875q0 -1.0 0.578125 -1.875q0.578125 -0.890625 1.671875 -1.34375q1.109375 -0.453125 2.453125 -0.453125q1.484375 0 2.609375 0.484375q1.140625 0.46875 1.75 1.40625q0.609375 0.921875 0.65625 2.09375l-1.6875 0.125q-0.140625 -1.265625 -0.9375 -1.90625q-0.78125 -0.65625 -2.3125 -0.65625q-1.609375 0 -2.34375 0.59375q-0.734375 0.59375 -0.734375 1.421875q0 0.71875 0.53125 1.171875q0.5 0.46875 2.65625 0.96875q2.15625 0.484375 2.953125 0.84375q1.171875 0.53125 1.71875 1.359375q0.5625 0.828125 0.5625 1.90625q0 1.0625 -0.609375 2.015625q-0.609375 0.9375 -1.75 1.46875q-1.140625 0.515625 -2.578125 0.515625q-1.8125 0 -3.046875 -0.53125q-1.21875 -0.53125 -1.921875 -1.59375q-0.6875 -1.0625 -0.71875 -2.40625zm12.4436035 0l1.65625 -0.140625q0.125 1.0 0.546875 1.640625q0.4375 0.640625 1.34375 1.046875q0.921875 0.390625 2.0625 0.390625q1.0 0 1.78125 -0.296875q0.78125 -0.296875 1.15625 -0.8125q0.375 -0.53125 0.375 -1.15625q0 -0.625 -0.375 -1.09375q-0.359375 -0.46875 -1.1875 -0.796875q-0.546875 -0.203125 -2.390625 -0.640625q-1.828125 -0.453125 -2.5625 -0.84375q-0.96875 -0.5 -1.4375 -1.234375q-0.46875 -0.75 -0.46875 -1.671875q0 -1.0 0.578125 -1.875q0.578125 -0.890625 1.671875 -1.34375q1.109375 -0.453125 2.453125 -0.453125q1.484375 0 2.609375 0.484375q1.140625 0.46875 1.75 1.40625q0.609375 0.921875 0.65625 2.09375l-1.6875 0.125q-0.140625 -1.265625 -0.9375 -1.90625q-0.78125 -0.65625 -2.3125 -0.65625q-1.609375 0 -2.34375 0.59375q-0.734375 0.59375 -0.734375 1.421875q0 0.71875 0.53125 1.171875q0.5 0.46875 2.65625 0.96875q2.15625 0.484375 2.953125 0.84375q1.171875 0.53125 1.71875 1.359375q0.5625 0.828125 0.5625 1.90625q0 1.0625 -0.609375 2.015625q-0.609375 0.9375 -1.75 1.46875q-1.140625 0.515625 -2.578125 0.515625q-1.8125 0 -3.046875 -0.53125q-1.21875 -0.53125 -1.921875 -1.59375q-0.6875 -1.0625 -0.71875 -2.40625zm12.9592285 4.296875l0 -13.359375l1.78125 0l0 11.78125l6.5625 0l0 1.578125l-8.34375 0zm14.288147 -3.53125l1.640625 -0.21875q0.28125 1.40625 0.953125 2.015625q0.6875 0.609375 1.65625 0.609375q1.15625 0 1.953125 -0.796875q0.796875 -0.796875 0.796875 -1.984375q0 -1.125 -0.734375 -1.859375q-0.734375 -0.734375 -1.875 -0.734375q-0.46875 0 -1.15625 0.171875l0.1875 -1.4375q0.15625 0.015625 0.265625 0.015625q1.046875 0 1.875 -0.546875q0.84375 -0.546875 0.84375 -1.671875q0 -0.90625 -0.609375 -1.5q-0.609375 -0.59375 -1.578125 -0.59375q-0.953125 0 -1.59375 0.609375q-0.640625 0.59375 -0.8125 1.796875l-1.640625 -0.296875q0.296875 -1.640625 1.359375 -2.546875q1.0625 -0.90625 2.65625 -0.90625q1.09375 0 2.0 0.46875q0.921875 0.46875 1.40625 1.28125q0.5 0.8125 0.5 1.71875q0 0.859375 -0.46875 1.578125q-0.46875 0.703125 -1.375 1.125q1.1875 0.28125 1.84375 1.140625q0.65625 0.859375 0.65625 2.15625q0 1.734375 -1.28125 2.953125q-1.265625 1.21875 -3.21875 1.21875q-1.765625 0 -2.921875 -1.046875q-1.15625 -1.046875 -1.328125 -2.71875zm11.281982 3.53125l0 -1.875l1.875 0l0 1.875l-1.875 0zm4.2770386 -6.59375q0 -2.359375 0.484375 -3.796875q0.484375 -1.453125 1.4375 -2.234375q0.96875 -0.78125 2.421875 -0.78125q1.078125 0 1.890625 0.4375q0.8125 0.421875 1.328125 1.25q0.53125 0.8125 0.828125 1.984375q0.3125 1.15625 0.3125 3.140625q0 2.359375 -0.484375 3.8125q-0.484375 1.4375 -1.453125 2.234375q-0.953125 0.78125 -2.421875 0.78125q-1.921875 0 -3.03125 -1.390625q-1.3125 -1.671875 -1.3125 -5.4375zm1.671875 0q0 3.296875 0.765625 4.390625q0.78125 1.078125 1.90625 1.078125q1.140625 0 1.90625 -1.09375q0.765625 -1.09375 0.765625 -4.375q0 -3.296875 -0.765625 -4.375q-0.765625 -1.078125 -1.921875 -1.078125q-1.125 0 -1.796875 0.953125q-0.859375 1.21875 -0.859375 4.5zm9.610107 6.59375l0 -1.875l1.875 0l0 1.875l-1.875 0zm12.886414 -1.578125l0 1.578125l-8.828125 0q-0.015625 -0.59375 0.1875 -1.140625q0.34375 -0.90625 1.078125 -1.78125q0.75 -0.875 2.15625 -2.015625q2.171875 -1.78125 2.9375 -2.828125q0.765625 -1.046875 0.765625 -1.96875q0 -0.984375 -0.703125 -1.640625q-0.6875 -0.671875 -1.8125 -0.671875q-1.1875 0 -1.90625 0.71875q-0.703125 0.703125 -0.703125 1.953125l-1.6875 -0.171875q0.171875 -1.890625 1.296875 -2.875q1.140625 -0.984375 3.03125 -0.984375q1.921875 0 3.046875 1.0625q1.125 1.0625 1.125 2.640625q0 0.796875 -0.328125 1.578125q-0.328125 0.78125 -1.09375 1.640625q-0.75 0.84375 -2.53125 2.34375q-1.46875 1.234375 -1.890625 1.6875q-0.421875 0.4375 -0.6875 0.875l6.546875 0z" fill-rule="nonzero"/><path fill="#ff9900" d="m585.93176 207.42783l245.63782 0l0 21.070862l-245.63782 0z" fill-rule="evenodd"/><path fill="#ffffff" d="m629.7415 224.88326l0 -13.359375l1.78125 0l0 6.625l6.625 -6.625l2.390625 0l-5.59375 5.421875l5.84375 7.9375l-2.328125 0l-4.765625 -6.765625l-2.171875 2.140625l0 4.625l-1.78125 0zm12.3185425 0l0 -9.671875l1.46875 0l0 1.375q1.0625 -1.59375 3.078125 -1.59375q0.875 0 1.609375 0.3125q0.734375 0.3125 1.09375 0.828125q0.375 0.5 0.515625 1.203125q0.09375 0.453125 0.09375 1.59375l0 5.953125l-1.640625 0l0 -5.890625q0 -1.0 -0.203125 -1.484375q-0.1875 -0.5 -0.671875 -0.796875q-0.484375 -0.296875 -1.140625 -0.296875q-1.046875 0 -1.8125 0.671875q-0.75 0.65625 -0.75 2.515625l0 5.28125l-1.640625 0zm9.766357 -4.84375q0 -2.6875 1.484375 -3.96875q1.25 -1.078125 3.046875 -1.078125q2.0 0 3.265625 1.3125q1.265625 1.296875 1.265625 3.609375q0 1.859375 -0.5625 2.9375q-0.5625 1.0625 -1.640625 1.65625q-1.0625 0.59375 -2.328125 0.59375q-2.03125 0 -3.28125 -1.296875q-1.25 -1.3125 -1.25 -3.765625zm1.6875 0q0 1.859375 0.796875 2.796875q0.8125 0.921875 2.046875 0.921875q1.21875 0 2.03125 -0.921875q0.8125 -0.9375 0.8125 -2.84375q0 -1.796875 -0.8125 -2.71875q-0.8125 -0.921875 -2.03125 -0.921875q-1.234375 0 -2.046875 0.921875q-0.796875 0.90625 -0.796875 2.765625zm11.078857 4.84375l-2.96875 -9.671875l1.703125 0l1.53125 5.578125l0.578125 2.078125q0.046875 -0.15625 0.5 -2.0l1.546875 -5.65625l1.6875 0l1.4375 5.609375l0.484375 1.84375l0.5625 -1.859375l1.65625 -5.59375l1.59375 0l-3.03125 9.671875l-1.703125 0l-1.53125 -5.796875l-0.375 -1.640625l-1.953125 7.4375l-1.71875 0zm11.69165 0l0 -9.671875l1.46875 0l0 1.375q1.0625 -1.59375 3.078125 -1.59375q0.875 0 1.609375 0.3125q0.734375 0.3125 1.09375 0.828125q0.375 0.5 0.515625 1.203125q0.09375 0.453125 0.09375 1.59375l0 5.953125l-1.640625 0l0 -5.890625q0 -1.0 -0.203125 -1.484375q-0.1875 -0.5 -0.671875 -0.796875q-0.484375 -0.296875 -1.140625 -0.296875q-1.046875 0 -1.8125 0.671875q-0.75 0.65625 -0.75 2.515625l0 5.28125l-1.640625 0zm18.246521 0l-3.6875 -9.671875l1.734375 0l2.078125 5.796875q0.328125 0.9375 0.625 1.9375q0.203125 -0.765625 0.609375 -1.828125l2.140625 -5.90625l1.6875 0l-3.65625 9.671875l-1.53125 0zm12.96875 0l0 -1.421875q-1.125 1.640625 -3.0625 1.640625q-0.859375 0 -1.609375 -0.328125q-0.734375 -0.328125 -1.09375 -0.828125q-0.359375 -0.5 -0.5 -1.21875q-0.109375 -0.46875 -0.109375 -1.53125l0 -5.984375l1.640625 0l0 5.359375q0 1.28125 0.109375 1.734375q0.15625 0.640625 0.65625 1.015625q0.5 0.375 1.234375 0.375q0.734375 0 1.375 -0.375q0.65625 -0.390625 0.921875 -1.03125q0.265625 -0.65625 0.265625 -1.890625l0 -5.1875l1.640625 0l0 9.671875l-1.46875 0zm4.0007324 0l0 -13.359375l1.640625 0l0 13.359375l-1.640625 0zm4.1917114 0l0 -9.671875l1.46875 0l0 1.375q1.0625 -1.59375 3.078125 -1.59375q0.875 0 1.609375 0.3125q0.734375 0.3125 1.09375 0.828125q0.375 0.5 0.515625 1.203125q0.09375 0.453125 0.09375 1.59375l0 5.953125l-1.640625 0l0 -5.890625q0 -1.0 -0.203125 -1.484375q-0.1875 -0.5 -0.671875 -0.796875q-0.484375 -0.296875 -1.140625 -0.296875q-1.046875 0 -1.8125 0.671875q-0.75 0.65625 -0.75 2.515625l0 5.28125l-1.640625 0zm17.000732 -3.109375l1.6875 0.203125q-0.40625 1.484375 -1.484375 2.3125q-1.078125 0.8125 -2.765625 0.8125q-2.125 0 -3.375 -1.296875q-1.234375 -1.3125 -1.234375 -3.671875q0 -2.453125 1.25 -3.796875q1.265625 -1.34375 3.265625 -1.34375q1.9375 0 3.15625 1.328125q1.234375 1.3125 1.234375 3.703125q0 0.15625 0 0.4375l-7.21875 0q0.09375 1.59375 0.90625 2.453125q0.8125 0.84375 2.015625 0.84375q0.90625 0 1.546875 -0.46875q0.640625 -0.484375 1.015625 -1.515625zm-5.390625 -2.65625l5.40625 0q-0.109375 -1.21875 -0.625 -1.828125q-0.78125 -0.953125 -2.03125 -0.953125q-1.125 0 -1.90625 0.765625q-0.765625 0.75 -0.84375 2.015625zm9.125671 5.765625l0 -9.671875l1.46875 0l0 1.46875q0.5625 -1.03125 1.03125 -1.359375q0.484375 -0.328125 1.0625 -0.328125q0.828125 0 1.6875 0.53125l-0.5625 1.515625q-0.609375 -0.359375 -1.203125 -0.359375q-0.546875 0 -0.96875 0.328125q-0.421875 0.328125 -0.609375 0.890625q-0.28125 0.875 -0.28125 1.921875l0 5.0625l-1.625 0zm12.5408325 -1.1875q-0.921875 0.765625 -1.765625 1.09375q-0.828125 0.3125 -1.796875 0.3125q-1.59375 0 -2.453125 -0.78125q-0.859375 -0.78125 -0.859375 -1.984375q0 -0.71875 0.328125 -1.296875q0.328125 -0.59375 0.84375 -0.9375q0.53125 -0.359375 1.1875 -0.546875q0.46875 -0.125 1.453125 -0.25q1.984375 -0.234375 2.921875 -0.5625q0.015625 -0.34375 0.015625 -0.421875q0 -1.0 -0.46875 -1.421875q-0.625 -0.546875 -1.875 -0.546875q-1.15625 0 -1.703125 0.40625q-0.546875 0.40625 -0.8125 1.421875l-1.609375 -0.21875q0.21875 -1.015625 0.71875 -1.640625q0.5 -0.640625 1.453125 -0.984375q0.953125 -0.34375 2.1875 -0.34375q1.25 0 2.015625 0.296875q0.78125 0.28125 1.140625 0.734375q0.375 0.4375 0.515625 1.109375q0.078125 0.421875 0.078125 1.515625l0 2.1875q0 2.28125 0.109375 2.890625q0.109375 0.59375 0.40625 1.15625l-1.703125 0q-0.265625 -0.515625 -0.328125 -1.1875zm-0.140625 -3.671875q-0.890625 0.375 -2.671875 0.625q-1.015625 0.140625 -1.4375 0.328125q-0.421875 0.1875 -0.65625 0.53125q-0.21875 0.34375 -0.21875 0.78125q0 0.65625 0.5 1.09375q0.5 0.4375 1.453125 0.4375q0.9375 0 1.671875 -0.40625q0.75 -0.421875 1.09375 -1.140625q0.265625 -0.5625 0.265625 -1.640625l0 -0.609375zm5.7038574 4.859375l-1.515625 0l0 -13.359375l1.640625 0l0 4.765625q1.046875 -1.296875 2.65625 -1.296875q0.890625 0 1.6875 0.359375q0.796875 0.359375 1.3125 1.015625q0.515625 0.640625 0.796875 1.5625q0.296875 0.921875 0.296875 1.96875q0 2.484375 -1.234375 3.84375q-1.21875 1.359375 -2.953125 1.359375q-1.703125 0 -2.6875 -1.4375l0 1.21875zm-0.015625 -4.90625q0 1.734375 0.484375 2.515625q0.765625 1.265625 2.09375 1.265625q1.078125 0 1.859375 -0.9375q0.78125 -0.9375 0.78125 -2.78125q0 -1.890625 -0.75 -2.796875q-0.75 -0.90625 -1.828125 -0.90625q-1.0625 0 -1.859375 0.9375q-0.78125 0.9375 -0.78125 2.703125zm8.891296 -6.5625l0 -1.890625l1.640625 0l0 1.890625l-1.640625 0zm0 11.46875l0 -9.671875l1.640625 0l0 9.671875l-1.640625 0zm4.0979614 0l0 -13.359375l1.640625 0l0 13.359375l-1.640625 0zm4.1917114 -11.46875l0 -1.890625l1.640625 0l0 1.890625l-1.640625 0zm0 11.46875l0 -9.671875l1.640625 0l0 9.671875l-1.640625 0zm7.7229614 -1.46875l0.234375 1.453125q-0.6875 0.140625 -1.234375 0.140625q-0.890625 0 -1.390625 -0.28125q-0.484375 -0.28125 -0.6875 -0.734375q-0.203125 -0.46875 -0.203125 -1.9375l0 -5.578125l-1.203125 0l0 -1.265625l1.203125 0l0 -2.390625l1.625 -0.984375l0 3.375l1.65625 0l0 1.265625l-1.65625 0l0 5.671875q0 0.6875 0.078125 0.890625q0.09375 0.203125 0.28125 0.328125q0.203125 0.109375 0.578125 0.109375q0.265625 0 0.71875 -0.0625zm1.5270386 5.1875l-0.1875 -1.53125q0.546875 0.140625 0.9375 0.140625q0.546875 0 0.875 -0.1875q0.328125 -0.171875 0.546875 -0.5q0.15625 -0.25 0.5 -1.21875q0.046875 -0.140625 0.140625 -0.40625l-3.671875 -9.6875l1.765625 0l2.015625 5.59375q0.390625 1.078125 0.703125 2.25q0.28125 -1.125 0.671875 -2.203125l2.078125 -5.640625l1.640625 0l-3.6875 9.828125q-0.59375 1.609375 -0.921875 2.203125q-0.4375 0.8125 -1.0 1.1875q-0.5625 0.375 -1.34375 0.375q-0.484375 0 -1.0625 -0.203125z" fill-rule="nonzero"/><path fill="#ff9900" d="m589.57745 434.1942l245.63776 0l0 21.070892l-245.63776 0z" fill-rule="evenodd"/><path fill="#ffffff" d="m633.38715 451.64966l0 -13.359375l1.78125 0l0 6.625l6.625 -6.625l2.390625 0l-5.59375 5.421875l5.84375 7.9375l-2.328125 0l-4.765625 -6.765625l-2.171875 2.140625l0 4.625l-1.78125 0zm12.3186035 0l0 -9.671875l1.46875 0l0 1.375q1.0625 -1.59375 3.078125 -1.59375q0.875 0 1.609375 0.3125q0.734375 0.3125 1.09375 0.828125q0.375 0.5 0.515625 1.203125q0.09375 0.453125 0.09375 1.59375l0 5.953125l-1.640625 0l0 -5.890625q0 -1.0 -0.203125 -1.484375q-0.1875 -0.5 -0.671875 -0.796875q-0.484375 -0.296875 -1.140625 -0.296875q-1.046875 0 -1.8125 0.671875q-0.75 0.65625 -0.75 2.515625l0 5.28125l-1.640625 0zm9.766357 -4.84375q0 -2.6875 1.484375 -3.96875q1.25 -1.078125 3.046875 -1.078125q2.0 0 3.265625 1.3125q1.265625 1.296875 1.265625 3.609375q0 1.859375 -0.5625 2.9375q-0.5625 1.0625 -1.640625 1.65625q-1.0625 0.59375 -2.328125 0.59375q-2.03125 0 -3.28125 -1.296875q-1.25 -1.3125 -1.25 -3.765625zm1.6875 0q0 1.859375 0.796875 2.796875q0.8125 0.921875 2.046875 0.921875q1.21875 0 2.03125 -0.921875q0.8125 -0.9375 0.8125 -2.84375q0 -1.796875 -0.8125 -2.71875q-0.8125 -0.921875 -2.03125 -0.921875q-1.234375 0 -2.046875 0.921875q-0.796875 0.90625 -0.796875 2.765625zm11.078796 4.84375l-2.96875 -9.671875l1.703125 0l1.53125 5.578125l0.578125 2.078125q0.046875 -0.15625 0.5 -2.0l1.546875 -5.65625l1.6875 0l1.4375 5.609375l0.484375 1.84375l0.5625 -1.859375l1.65625 -5.59375l1.59375 0l-3.03125 9.671875l-1.703125 0l-1.53125 -5.796875l-0.375 -1.640625l-1.953125 7.4375l-1.71875 0zm11.691711 0l0 -9.671875l1.46875 0l0 1.375q1.0625 -1.59375 3.078125 -1.59375q0.875 0 1.609375 0.3125q0.734375 0.3125 1.09375 0.828125q0.375 0.5 0.515625 1.203125q0.09375 0.453125 0.09375 1.59375l0 5.953125l-1.640625 0l0 -5.890625q0 -1.0 -0.203125 -1.484375q-0.1875 -0.5 -0.671875 -0.796875q-0.484375 -0.296875 -1.140625 -0.296875q-1.046875 0 -1.8125 0.671875q-0.75 0.65625 -0.75 2.515625l0 5.28125l-1.640625 0zm18.246521 0l-3.6875 -9.671875l1.734375 0l2.078125 5.796875q0.328125 0.9375 0.625 1.9375q0.203125 -0.765625 0.609375 -1.828125l2.140625 -5.90625l1.6875 0l-3.65625 9.671875l-1.53125 0zm12.96875 0l0 -1.421875q-1.125 1.640625 -3.0625 1.640625q-0.859375 0 -1.609375 -0.328125q-0.734375 -0.328125 -1.09375 -0.828125q-0.359375 -0.5 -0.5 -1.21875q-0.109375 -0.46875 -0.109375 -1.53125l0 -5.984375l1.640625 0l0 5.359375q0 1.28125 0.109375 1.734375q0.15625 0.640625 0.65625 1.015625q0.5 0.375 1.234375 0.375q0.734375 0 1.375 -0.375q0.65625 -0.390625 0.921875 -1.03125q0.265625 -0.65625 0.265625 -1.890625l0 -5.1875l1.640625 0l0 9.671875l-1.46875 0zm4.0007324 0l0 -13.359375l1.640625 0l0 13.359375l-1.640625 0zm4.1917114 0l0 -9.671875l1.46875 0l0 1.375q1.0625 -1.59375 3.078125 -1.59375q0.875 0 1.609375 0.3125q0.734375 0.3125 1.09375 0.828125q0.375 0.5 0.515625 1.203125q0.09375 0.453125 0.09375 1.59375l0 5.953125l-1.640625 0l0 -5.890625q0 -1.0 -0.203125 -1.484375q-0.1875 -0.5 -0.671875 -0.796875q-0.484375 -0.296875 -1.140625 -0.296875q-1.046875 0 -1.8125 0.671875q-0.75 0.65625 -0.75 2.515625l0 5.28125l-1.640625 0zm17.000671 -3.109375l1.6875 0.203125q-0.40625 1.484375 -1.484375 2.3125q-1.078125 0.8125 -2.765625 0.8125q-2.125 0 -3.375 -1.296875q-1.234375 -1.3125 -1.234375 -3.671875q0 -2.453125 1.25 -3.796875q1.265625 -1.34375 3.265625 -1.34375q1.9375 0 3.15625 1.328125q1.234375 1.3125 1.234375 3.703125q0 0.15625 0 0.4375l-7.21875 0q0.09375 1.59375 0.90625 2.453125q0.8125 0.84375 2.015625 0.84375q0.90625 0 1.546875 -0.46875q0.640625 -0.484375 1.015625 -1.515625zm-5.390625 -2.65625l5.40625 0q-0.109375 -1.21875 -0.625 -1.828125q-0.78125 -0.953125 -2.03125 -0.953125q-1.125 0 -1.90625 0.765625q-0.765625 0.75 -0.84375 2.015625zm9.125732 5.765625l0 -9.671875l1.46875 0l0 1.46875q0.5625 -1.03125 1.03125 -1.359375q0.484375 -0.328125 1.0625 -0.328125q0.828125 0 1.6875 0.53125l-0.5625 1.515625q-0.609375 -0.359375 -1.203125 -0.359375q-0.546875 0 -0.96875 0.328125q-0.421875 0.328125 -0.609375 0.890625q-0.28125 0.875 -0.28125 1.921875l0 5.0625l-1.625 0zm12.5408325 -1.1875q-0.921875 0.765625 -1.765625 1.09375q-0.828125 0.3125 -1.796875 0.3125q-1.59375 0 -2.453125 -0.78125q-0.859375 -0.78125 -0.859375 -1.984375q0 -0.71875 0.328125 -1.296875q0.328125 -0.59375 0.84375 -0.9375q0.53125 -0.359375 1.1875 -0.546875q0.46875 -0.125 1.453125 -0.25q1.984375 -0.234375 2.921875 -0.5625q0.015625 -0.34375 0.015625 -0.421875q0 -1.0 -0.46875 -1.421875q-0.625 -0.546875 -1.875 -0.546875q-1.15625 0 -1.703125 0.40625q-0.546875 0.40625 -0.8125 1.421875l-1.609375 -0.21875q0.21875 -1.015625 0.71875 -1.640625q0.5 -0.640625 1.453125 -0.984375q0.953125 -0.34375 2.1875 -0.34375q1.25 0 2.015625 0.296875q0.78125 0.28125 1.140625 0.734375q0.375 0.4375 0.515625 1.109375q0.078125 0.421875 0.078125 1.515625l0 2.1875q0 2.28125 0.109375 2.890625q0.109375 0.59375 0.40625 1.15625l-1.703125 0q-0.265625 -0.515625 -0.328125 -1.1875zm-0.140625 -3.671875q-0.890625 0.375 -2.671875 0.625q-1.015625 0.140625 -1.4375 0.328125q-0.421875 0.1875 -0.65625 0.53125q-0.21875 0.34375 -0.21875 0.78125q0 0.65625 0.5 1.09375q0.5 0.4375 1.453125 0.4375q0.9375 0 1.671875 -0.40625q0.75 -0.421875 1.09375 -1.140625q0.265625 -0.5625 0.265625 -1.640625l0 -0.609375zm5.7037964 4.859375l-1.515625 0l0 -13.359375l1.640625 0l0 4.765625q1.046875 -1.296875 2.65625 -1.296875q0.890625 0 1.6875 0.359375q0.796875 0.359375 1.3125 1.015625q0.515625 0.640625 0.796875 1.5625q0.296875 0.921875 0.296875 1.96875q0 2.484375 -1.234375 3.84375q-1.21875 1.359375 -2.953125 1.359375q-1.703125 0 -2.6875 -1.4375l0 1.21875zm-0.015625 -4.90625q0 1.734375 0.484375 2.515625q0.765625 1.265625 2.09375 1.265625q1.078125 0 1.859375 -0.9375q0.78125 -0.9375 0.78125 -2.78125q0 -1.890625 -0.75 -2.796875q-0.75 -0.90625 -1.828125 -0.90625q-1.0625 0 -1.859375 0.9375q-0.78125 0.9375 -0.78125 2.703125zm8.891357 -6.5625l0 -1.890625l1.640625 0l0 1.890625l-1.640625 0zm0 11.46875l0 -9.671875l1.640625 0l0 9.671875l-1.640625 0zm4.0979614 0l0 -13.359375l1.640625 0l0 13.359375l-1.640625 0zm4.1917114 -11.46875l0 -1.890625l1.640625 0l0 1.890625l-1.640625 0zm0 11.46875l0 -9.671875l1.640625 0l0 9.671875l-1.640625 0zm7.7229004 -1.46875l0.234375 1.453125q-0.6875 0.140625 -1.234375 0.140625q-0.890625 0 -1.390625 -0.28125q-0.484375 -0.28125 -0.6875 -0.734375q-0.203125 -0.46875 -0.203125 -1.9375l0 -5.578125l-1.203125 0l0 -1.265625l1.203125 0l0 -2.390625l1.625 -0.984375l0 3.375l1.65625 0l0 1.265625l-1.65625 0l0 5.671875q0 0.6875 0.078125 0.890625q0.09375 0.203125 0.28125 0.328125q0.203125 0.109375 0.578125 0.109375q0.265625 0 0.71875 -0.0625zm1.5270996 5.1875l-0.1875 -1.53125q0.546875 0.140625 0.9375 0.140625q0.546875 0 0.875 -0.1875q0.328125 -0.171875 0.546875 -0.5q0.15625 -0.25 0.5 -1.21875q0.046875 -0.140625 0.140625 -0.40625l-3.671875 -9.6875l1.765625 0l2.015625 5.59375q0.390625 1.078125 0.703125 2.25q0.28125 -1.125 0.671875 -2.203125l2.078125 -5.640625l1.640625 0l-3.6875 9.828125q-0.59375 1.609375 -0.921875 2.203125q-0.4375 0.8125 -1.0 1.1875q-0.5625 0.375 -1.34375 0.375q-0.484375 0 -1.0625 -0.203125z" fill-rule="nonzero"/><path fill="#eeeeee" d="m491.45932 263.38583l0 -194.04724l42.141754 0l0 194.04724z" fill-rule="evenodd"/><path stroke="#595959" stroke-width="1.0" stroke-linejoin="round" stroke-linecap="butt" d="m491.45932 263.38583l0 -194.04724l42.141754 0l0 194.04724z" fill-rule="evenodd"/><path fill="#000000" d="m515.1533 214.7644l-0.140625 -1.65625q1.0 -0.125 1.640625 -0.546875q0.640625 -0.4375 1.046875 -1.34375q0.390625 -0.921875 0.390625 -2.0625q0 -1.0 -0.296875 -1.78125q-0.296875 -0.78125 -0.8125 -1.15625q-0.53125 -0.375 -1.15625 -0.375q-0.625 0 -1.09375 0.375q-0.46875 0.359375 -0.796875 1.1875q-0.203125 0.546875 -0.640625 2.390625q-0.453125 1.828125 -0.84375 2.5625q-0.5 0.96875 -1.234375 1.4375q-0.75 0.46875 -1.671875 0.46875q-1.0 0 -1.875 -0.578125q-0.890625 -0.578125 -1.34375 -1.671875q-0.453125 -1.109375 -0.453125 -2.453125q0 -1.484375 0.484375 -2.609375q0.46875 -1.140625 1.40625 -1.75q0.921875 -0.609375 2.09375 -0.65625l0.125 1.6875q-1.265625 0.140625 -1.90625 0.9375q-0.65625 0.78125 -0.65625 2.3125q0 1.609375 0.59375 2.34375q0.59375 0.734375 1.421875 0.734375q0.71875 0 1.171875 -0.53125q0.46875 -0.5 0.96875 -2.65625q0.484375 -2.15625 0.84375 -2.953125q0.53125 -1.171875 1.359375 -1.71875q0.828125 -0.5625 1.90625 -0.5625q1.0625 0 2.015625 0.609375q0.9375 0.609375 1.46875 1.75q0.515625 1.140625 0.515625 2.578125q0 1.8125 -0.53125 3.046875q-0.53125 1.21875 -1.59375 1.921875q-1.0625 0.6875 -2.40625 0.71875zm0 -12.443573l-0.140625 -1.65625q1.0 -0.125 1.640625 -0.546875q0.640625 -0.4375 1.046875 -1.34375q0.390625 -0.921875 0.390625 -2.0625q0 -1.0 -0.296875 -1.78125q-0.296875 -0.78125 -0.8125 -1.15625q-0.53125 -0.375 -1.15625 -0.375q-0.625 0 -1.09375 0.375q-0.46875 0.359375 -0.796875 1.1875q-0.203125 0.546875 -0.640625 2.390625q-0.453125 1.828125 -0.84375 2.5625q-0.5 0.96875 -1.234375 1.4375q-0.75 0.46875 -1.671875 0.46875q-1.0 0 -1.875 -0.578125q-0.890625 -0.578125 -1.34375 -1.671875q-0.453125 -1.109375 -0.453125 -2.453125q0 -1.484375 0.484375 -2.609375q0.46875 -1.140625 1.40625 -1.75q0.921875 -0.609375 2.09375 -0.65625l0.125 1.6875q-1.265625 0.140625 -1.90625 0.9375q-0.65625 0.78125 -0.65625 2.3125q0 1.609375 0.59375 2.34375q0.59375 0.734375 1.421875 0.734375q0.71875 0 1.171875 -0.53125q0.46875 -0.5 0.96875 -2.65625q0.484375 -2.15625 0.84375 -2.953125q0.53125 -1.171875 1.359375 -1.71875q0.828125 -0.5625 1.90625 -0.5625q1.0625 0 2.015625 0.609375q0.9375 0.609375 1.46875 1.75q0.515625 1.140625 0.515625 2.578125q0 1.8125 -0.53125 3.046875q-0.53125 1.21875 -1.59375 1.921875q-1.0625 0.6875 -2.40625 0.71875zm4.296875 -13.099823l-13.359375 0l0 -1.765625l5.484375 0l0 -6.9375l-5.484375 0l0 -1.765625l13.359375 0l0 1.765625l-6.296875 0l0 6.9375l6.296875 0l0 1.765625zm-4.296875 -18.0l-0.140625 -1.65625q1.0 -0.125 1.640625 -0.546875q0.640625 -0.4375 1.046875 -1.34375q0.390625 -0.921875 0.390625 -2.0625q0 -1.0 -0.296875 -1.78125q-0.296875 -0.78125 -0.8125 -1.15625q-0.53125 -0.375 -1.15625 -0.375q-0.625 0 -1.09375 0.375q-0.46875 0.359375 -0.796875 1.1875q-0.203125 0.546875 -0.640625 2.390625q-0.453125 1.828125 -0.84375 2.5625q-0.5 0.96875 -1.234375 1.4375q-0.75 0.46875 -1.671875 0.46875q-1.0 0 -1.875 -0.578125q-0.890625 -0.578125 -1.34375 -1.671875q-0.453125 -1.109375 -0.453125 -2.453125q0 -1.484375 0.484375 -2.609375q0.46875 -1.140625 1.40625 -1.75q0.921875 -0.609375 2.09375 -0.65625l0.125 1.6875q-1.265625 0.140625 -1.90625 0.9375q-0.65625 0.78125 -0.65625 2.3125q0 1.609375 0.59375 2.34375q0.59375 0.734375 1.421875 0.734375q0.71875 0 1.171875 -0.53125q0.46875 -0.5 0.96875 -2.65625q0.484375 -2.15625 0.84375 -2.953125q0.53125 -1.171875 1.359375 -1.71875q0.828125 -0.5625 1.90625 -0.5625q1.0625 0 2.015625 0.609375q0.9375 0.609375 1.46875 1.75q0.515625 1.140625 0.515625 2.578125q0 1.8125 -0.53125 3.046875q-0.53125 1.21875 -1.59375 1.921875q-1.0625 0.6875 -2.40625 0.71875zm1.1875 -19.459198l0.203125 -1.6875q1.484375 0.40625 2.3125 1.484375q0.8125 1.078125 0.8125 2.765625q0 2.125 -1.296875 3.375q-1.3125 1.234375 -3.671875 1.234375q-2.453125 0 -3.796875 -1.25q-1.34375 -1.265625 -1.34375 -3.265625q0 -1.9375 1.328125 -3.15625q1.3125 -1.234375 3.703125 -1.234375q0.15625 0 0.4375 0l0 7.21875q1.59375 -0.09375 2.453125 -0.90625q0.84375 -0.8125 0.84375 -2.015625q0 -0.90625 -0.46875 -1.546875q-0.484375 -0.640625 -1.515625 -1.015625zm-2.65625 5.390625l0 -5.40625q-1.21875 0.109375 -1.828125 0.625q-0.953125 0.78125 -0.953125 2.03125q0 1.125 0.765625 1.90625q0.75 0.765625 2.015625 0.84375zm5.765625 -9.125717l-9.671875 0l0 -1.46875l1.46875 0q-1.03125 -0.5625 -1.359375 -1.03125q-0.328125 -0.484375 -0.328125 -1.0625q0 -0.828125 0.53125 -1.6875l1.515625 0.5625q-0.359375 0.609375 -0.359375 1.203125q0 0.546875 0.328125 0.96875q0.328125 0.421875 0.890625 0.609375q0.875 0.28125 1.921875 0.28125l5.0625 0l0 1.625zm0 -8.915802l-9.671875 3.6875l0 -1.734375l5.796875 -2.078125q0.9375 -0.328125 1.9375 -0.625q-0.765625 -0.203125 -1.828125 -0.609375l-5.90625 -2.140625l0 -1.6875l9.671875 3.65625l0 1.53125zm-3.109375 -13.265633l0.203125 -1.6875q1.484375 0.40625 2.3125 1.484375q0.8125 1.078125 0.8125 2.7656326q0 2.125 -1.296875 3.375q-1.3125 1.234375 -3.671875 1.234375q-2.453125 0 -3.796875 -1.25q-1.34375 -1.265625 -1.34375 -3.265625q0 -1.9375076 1.328125 -3.1562576q1.3125 -1.234375 3.703125 -1.234375q0.15625 0 0.4375 0l0 7.2187576q1.59375 -0.09375 2.453125 -0.90625q0.84375 -0.8125 0.84375 -2.015625q0 -0.9062576 -0.46875 -1.5468826q-0.484375 -0.640625 -1.515625 -1.015625zm-2.65625 5.3906326l0 -5.4062576q-1.21875 0.109375 -1.828125 0.625q-0.953125 0.78125 -0.953125 2.0312576q0 1.125 0.765625 1.90625q0.75 0.765625 2.015625 0.84375zm5.765625 -9.125725l-9.671875 0l0 -1.46875l1.46875 0q-1.03125 -0.5625 -1.359375 -1.03125q-0.328125 -0.484375 -0.328125 -1.0625q0 -0.828125 0.53125 -1.6875l1.515625 0.5625q-0.359375 0.609375 -0.359375 1.203125q0 0.546875 0.328125 0.96875q0.328125 0.421875 0.890625 0.609375q0.875 0.28125 1.921875 0.28125l5.0625 0l0 1.625z" fill-rule="nonzero"/><path fill="#eeeeee" d="m491.45932 489.24933l0 -194.77164l42.141754 0l0 194.77164z" fill-rule="evenodd"/><path stroke="#595959" stroke-width="1.0" stroke-linejoin="round" stroke-linecap="butt" d="m491.45932 489.24933l0 -194.77164l42.141754 0l0 194.77164z" fill-rule="evenodd"/><path fill="#000000" d="m515.1533 440.26572l-0.140625 -1.65625q1.0 -0.125 1.640625 -0.546875q0.640625 -0.4375 1.046875 -1.34375q0.390625 -0.921875 0.390625 -2.0625q0 -1.0 -0.296875 -1.78125q-0.296875 -0.78125 -0.8125 -1.15625q-0.53125 -0.375 -1.15625 -0.375q-0.625 0 -1.09375 0.375q-0.46875 0.359375 -0.796875 1.1875q-0.203125 0.546875 -0.640625 2.390625q-0.453125 1.828125 -0.84375 2.5625q-0.5 0.96875 -1.234375 1.4375q-0.75 0.46875 -1.671875 0.46875q-1.0 0 -1.875 -0.578125q-0.890625 -0.578125 -1.34375 -1.671875q-0.453125 -1.109375 -0.453125 -2.453125q0 -1.484375 0.484375 -2.609375q0.46875 -1.140625 1.40625 -1.75q0.921875 -0.609375 2.09375 -0.65625l0.125 1.6875q-1.265625 0.140625 -1.90625 0.9375q-0.65625 0.78125 -0.65625 2.3125q0 1.609375 0.59375 2.34375q0.59375 0.734375 1.421875 0.734375q0.71875 0 1.171875 -0.53125q0.46875 -0.5 0.96875 -2.65625q0.484375 -2.15625 0.84375 -2.953125q0.53125 -1.171875 1.359375 -1.71875q0.828125 -0.5625 1.90625 -0.5625q1.0625 0 2.015625 0.609375q0.9375 0.609375 1.46875 1.75q0.515625 1.140625 0.515625 2.578125q0 1.8125 -0.53125 3.046875q-0.53125 1.21875 -1.59375 1.921875q-1.0625 0.6875 -2.40625 0.71875zm0 -12.443573l-0.140625 -1.65625q1.0 -0.125 1.640625 -0.546875q0.640625 -0.4375 1.046875 -1.34375q0.390625 -0.921875 0.390625 -2.0625q0 -1.0 -0.296875 -1.78125q-0.296875 -0.78125 -0.8125 -1.15625q-0.53125 -0.375 -1.15625 -0.375q-0.625 0 -1.09375 0.375q-0.46875 0.359375 -0.796875 1.1875q-0.203125 0.546875 -0.640625 2.390625q-0.453125 1.828125 -0.84375 2.5625q-0.5 0.96875 -1.234375 1.4375q-0.75 0.46875 -1.671875 0.46875q-1.0 0 -1.875 -0.578125q-0.890625 -0.578125 -1.34375 -1.671875q-0.453125 -1.109375 -0.453125 -2.453125q0 -1.484375 0.484375 -2.609375q0.46875 -1.140625 1.40625 -1.75q0.921875 -0.609375 2.09375 -0.65625l0.125 1.6875q-1.265625 0.140625 -1.90625 0.9375q-0.65625 0.78125 -0.65625 2.3125q0 1.609375 0.59375 2.34375q0.59375 0.734375 1.421875 0.734375q0.71875 0 1.171875 -0.53125q0.46875 -0.5 0.96875 -2.65625q0.484375 -2.15625 0.84375 -2.953125q0.53125 -1.171875 1.359375 -1.71875q0.828125 -0.5625 1.90625 -0.5625q1.0625 0 2.015625 0.609375q0.9375 0.609375 1.46875 1.75q0.515625 1.140625 0.515625 2.578125q0 1.8125 -0.53125 3.046875q-0.53125 1.21875 -1.59375 1.921875q-1.0625 0.6875 -2.40625 0.71875zm4.296875 -13.099823l-13.359375 0l0 -1.765625l5.484375 0l0 -6.9375l-5.484375 0l0 -1.765625l13.359375 0l0 1.765625l-6.296875 0l0 6.9375l6.296875 0l0 1.765625zm-4.296875 -18.0l-0.140625 -1.65625q1.0 -0.125 1.640625 -0.546875q0.640625 -0.4375 1.046875 -1.34375q0.390625 -0.921875 0.390625 -2.0625q0 -1.0 -0.296875 -1.78125q-0.296875 -0.78125 -0.8125 -1.15625q-0.53125 -0.375 -1.15625 -0.375q-0.625 0 -1.09375 0.375q-0.46875 0.359375 -0.796875 1.1875q-0.203125 0.546875 -0.640625 2.390625q-0.453125 1.828125 -0.84375 2.5625q-0.5 0.96875 -1.234375 1.4375q-0.75 0.46875 -1.671875 0.46875q-1.0 0 -1.875 -0.578125q-0.890625 -0.578125 -1.34375 -1.671875q-0.453125 -1.109375 -0.453125 -2.453125q0 -1.484375 0.484375 -2.609375q0.46875 -1.140625 1.40625 -1.75q0.921875 -0.609375 2.09375 -0.65625l0.125 1.6875q-1.265625 0.140625 -1.90625 0.9375q-0.65625 0.78125 -0.65625 2.3125q0 1.609375 0.59375 2.34375q0.59375 0.734375 1.421875 0.734375q0.71875 0 1.171875 -0.53125q0.46875 -0.5 0.96875 -2.65625q0.484375 -2.15625 0.84375 -2.953125q0.53125 -1.171875 1.359375 -1.71875q0.828125 -0.5625 1.90625 -0.5625q1.0625 0 2.015625 0.609375q0.9375 0.609375 1.46875 1.75q0.515625 1.140625 0.515625 2.578125q0 1.8125 -0.53125 3.046875q-0.53125 1.21875 -1.59375 1.921875q-1.0625 0.6875 -2.40625 0.71875zm1.1875 -19.459198l0.203125 -1.6875q1.484375 0.40625 2.3125 1.484375q0.8125 1.078125 0.8125 2.765625q0 2.125 -1.296875 3.375q-1.3125 1.234375 -3.671875 1.234375q-2.453125 0 -3.796875 -1.25q-1.34375 -1.265625 -1.34375 -3.265625q0 -1.9375 1.328125 -3.15625q1.3125 -1.234375 3.703125 -1.234375q0.15625 0 0.4375 0l0 7.21875q1.59375 -0.09375 2.453125 -0.90625q0.84375 -0.8125 0.84375 -2.015625q0 -0.90625 -0.46875 -1.546875q-0.484375 -0.640625 -1.515625 -1.015625zm-2.65625 5.390625l0 -5.40625q-1.21875 0.109375 -1.828125 0.625q-0.953125 0.78125 -0.953125 2.03125q0 1.125 0.765625 1.90625q0.75 0.765625 2.015625 0.84375zm5.765625 -9.125732l-9.671875 0l0 -1.46875l1.46875 0q-1.03125 -0.5625 -1.359375 -1.03125q-0.328125 -0.484375 -0.328125 -1.0625q0 -0.828125 0.53125 -1.6875l1.515625 0.5625q-0.359375 0.609375 -0.359375 1.203125q0 0.546875 0.328125 0.96875q0.328125 0.421875 0.890625 0.609375q0.875 0.28125 1.921875 0.28125l5.0625 0l0 1.625zm0 -8.915802l-9.671875 3.6875l0 -1.734375l5.796875 -2.078125q0.9375 -0.328125 1.9375 -0.625q-0.765625 -0.203125 -1.828125 -0.609375l-5.90625 -2.140625l0 -1.6875l9.671875 3.65625l0 1.53125zm-3.109375 -13.265625l0.203125 -1.6875q1.484375 0.40625 2.3125 1.484375q0.8125 1.078125 0.8125 2.765625q0 2.125 -1.296875 3.375q-1.3125 1.234375 -3.671875 1.234375q-2.453125 0 -3.796875 -1.25q-1.34375 -1.265625 -1.34375 -3.265625q0 -1.9375 1.328125 -3.15625q1.3125 -1.234375 3.703125 -1.234375q0.15625 0 0.4375 0l0 7.21875q1.59375 -0.09375 2.453125 -0.90625q0.84375 -0.8125 0.84375 -2.015625q0 -0.90625 -0.46875 -1.546875q-0.484375 -0.640625 -1.515625 -1.015625zm-2.65625 5.390625l0 -5.40625q-1.21875 0.109375 -1.828125 0.625q-0.953125 0.78125 -0.953125 2.03125q0 1.125 0.765625 1.90625q0.75 0.765625 2.015625 0.84375zm5.765625 -9.125732l-9.671875 0l0 -1.46875l1.46875 0q-1.03125 -0.5625 -1.359375 -1.03125q-0.328125 -0.484375 -0.328125 -1.0625q0 -0.828125 0.53125 -1.6875l1.515625 0.5625q-0.359375 0.609375 -0.359375 1.203125q0 0.546875 0.328125 0.96875q0.328125 0.421875 0.890625 0.609375q0.875 0.28125 1.921875 0.28125l5.0625 0l0 1.625z" fill-rule="nonzero"/><path fill="#eeeeee" d="m246.5433 397.12598l0 -194.04724l42.141724 0l0 194.04724z" fill-rule="evenodd"/><path stroke="#595959" stroke-width="1.0" stroke-linejoin="round" stroke-linecap="butt" d="m246.5433 397.12598l0 -194.04724l42.141724 0l0 194.04724z" fill-rule="evenodd"/><path fill="#000000" d="m270.2373 344.87897l-0.140625 -1.65625q1.0 -0.125 1.640625 -0.546875q0.640625 -0.4375 1.046875 -1.34375q0.390625 -0.921875 0.390625 -2.0625q0 -1.0 -0.296875 -1.78125q-0.296875 -0.78125 -0.8125 -1.15625q-0.53125 -0.375 -1.15625 -0.375q-0.625 0 -1.09375 0.375q-0.46875 0.359375 -0.796875 1.1875q-0.203125 0.546875 -0.640625 2.390625q-0.453125 1.828125 -0.84375 2.5625q-0.5 0.96875 -1.234375 1.4375q-0.75 0.46875 -1.671875 0.46875q-1.0 0 -1.875 -0.578125q-0.890625 -0.578125 -1.34375 -1.671875q-0.453125 -1.109375 -0.453125 -2.453125q0 -1.484375 0.484375 -2.609375q0.46875 -1.140625 1.40625 -1.75q0.921875 -0.609375 2.09375 -0.65625l0.125 1.6875q-1.265625 0.140625 -1.90625 0.9375q-0.65625 0.78125 -0.65625 2.3125q0 1.609375 0.59375 2.34375q0.59375 0.734375 1.421875 0.734375q0.71875 0 1.171875 -0.53125q0.46875 -0.5 0.96875 -2.65625q0.484375 -2.15625 0.84375 -2.953125q0.53125 -1.171875 1.359375 -1.71875q0.828125 -0.5625 1.90625 -0.5625q1.0625 0 2.015625 0.609375q0.9375 0.609375 1.46875 1.75q0.515625 1.140625 0.515625 2.578125q0 1.8125 -0.53125 3.046875q-0.53125 1.21875 -1.59375 1.921875q-1.0625 0.6875 -2.40625 0.71875zm0 -12.443573l-0.140625 -1.65625q1.0 -0.125 1.640625 -0.546875q0.640625 -0.4375 1.046875 -1.34375q0.390625 -0.921875 0.390625 -2.0625q0 -1.0 -0.296875 -1.78125q-0.296875 -0.78125 -0.8125 -1.15625q-0.53125 -0.375 -1.15625 -0.375q-0.625 0 -1.09375 0.375q-0.46875 0.359375 -0.796875 1.1875q-0.203125 0.546875 -0.640625 2.390625q-0.453125 1.828125 -0.84375 2.5625q-0.5 0.96875 -1.234375 1.4375q-0.75 0.46875 -1.671875 0.46875q-1.0 0 -1.875 -0.578125q-0.890625 -0.578125 -1.34375 -1.671875q-0.453125 -1.109375 -0.453125 -2.453125q0 -1.484375 0.484375 -2.609375q0.46875 -1.140625 1.40625 -1.75q0.921875 -0.609375 2.09375 -0.65625l0.125 1.6875q-1.265625 0.140625 -1.90625 0.9375q-0.65625 0.78125 -0.65625 2.3125q0 1.609375 0.59375 2.34375q0.59375 0.734375 1.421875 0.734375q0.71875 0 1.171875 -0.53125q0.46875 -0.5 0.96875 -2.65625q0.484375 -2.15625 0.84375 -2.953125q0.53125 -1.171875 1.359375 -1.71875q0.828125 -0.5625 1.90625 -0.5625q1.0625 0 2.015625 0.609375q0.9375 0.609375 1.46875 1.75q0.515625 1.140625 0.515625 2.578125q0 1.8125 -0.53125 3.046875q-0.53125 1.21875 -1.59375 1.921875q-1.0625 0.6875 -2.40625 0.71875zm4.296875 -13.099823l-13.359375 0l0 -1.765625l5.484375 0l0 -6.9375l-5.484375 0l0 -1.765625l13.359375 0l0 1.765625l-6.296875 0l0 6.9375l6.296875 0l0 1.765625zm-4.6875 -28.125l0.453125 -1.765625q2.171875 0.5625 3.328125 2.0q1.140625 1.4375 1.140625 3.53125q0 2.15625 -0.875 3.515625q-0.890625 1.34375 -2.546875 2.0625q-1.671875 0.703125 -3.59375 0.703125q-2.078125 0 -3.625 -0.796875q-1.5625 -0.796875 -2.359375 -2.265625q-0.8125 -1.484375 -0.8125 -3.25q0 -2.0 1.015625 -3.359375q1.015625 -1.375 2.875 -1.90625l0.40625 1.734375q-1.453125 0.46875 -2.109375 1.359375q-0.671875 0.875 -0.671875 2.203125q0 1.546875 0.734375 2.578125q0.734375 1.03125 1.984375 1.453125q1.234375 0.421875 2.5625 0.421875q1.703125 0 2.96875 -0.5q1.265625 -0.5 1.90625 -1.546875q0.625 -1.046875 0.625 -2.265625q0 -1.484375 -0.859375 -2.515625q-0.859375 -1.03125 -2.546875 -1.390625zm4.6875 -3.691681l-13.359375 0l0 -1.640625l13.359375 0l0 1.640625zm-11.46875 -4.1917114l-1.890625 0l0 -1.640625l1.890625 0l0 1.640625zm11.46875 0l-9.671875 0l0 -1.640625l9.671875 0l0 1.640625zm-3.109375 -10.769806l0.203125 -1.6875q1.484375 0.40625 2.3125 1.484375q0.8125 1.078125 0.8125 2.765625q0 2.125 -1.296875 3.375q-1.3125 1.234375 -3.671875 1.234375q-2.453125 0 -3.796875 -1.25q-1.34375 -1.265625 -1.34375 -3.265625q0 -1.9375 1.328125 -3.15625q1.3125 -1.234375 3.703125 -1.234375q0.15625 0 0.4375 0l0 7.21875q1.59375 -0.09375 2.453125 -0.90625q0.84375 -0.8125 0.84375 -2.015625q0 -0.90625 -0.46875 -1.546875q-0.484375 -0.640625 -1.515625 -1.015625zm-2.65625 5.390625l0 -5.40625q-1.21875 0.109375 -1.828125 0.625q-0.953125 0.78125 -0.953125 2.03125q0 1.125 0.765625 1.90625q0.75 0.765625 2.015625 0.84375zm5.765625 -9.141357l-9.671875 0l0 -1.46875l1.375 0q-1.59375 -1.0625 -1.59375 -3.078125q0 -0.875 0.3125 -1.609375q0.3125 -0.734375 0.828125 -1.09375q0.5 -0.375 1.203125 -0.515625q0.453125 -0.09375 1.59375 -0.09375l5.953125 0l0 1.640625l-5.890625 0q-1.0 0 -1.484375 0.203125q-0.5 0.1875 -0.796875 0.671875q-0.296875 0.484375 -0.296875 1.140625q0 1.046875 0.671875 1.8125q0.65625 0.75 2.515625 0.75l5.28125 0l0 1.640625zm-1.46875 -13.953827l1.453125 -0.234375q0.140625 0.6875 0.140625 1.234375q0 0.890625 -0.28125 1.390625q-0.28125 0.484375 -0.734375 0.6875q-0.46875 0.203125 -1.9375 0.203125l-5.578125 0l0 1.203125l-1.265625 0l0 -1.203125l-2.390625 0l-0.984375 -1.625l3.375 0l0 -1.65625l1.265625 0l0 1.65625l5.671875 0q0.6875 0 0.890625 -0.078125q0.203125 -0.09375 0.328125 -0.28125q0.109375 -0.203125 0.109375 -0.578125q0 -0.265625 -0.0625 -0.71875z" fill-rule="nonzero"/><path fill="#4a86e8" d="m65.55643 202.5433l180.97638 0l0 82.64566l-180.97638 0z" fill-rule="evenodd"/><path fill="#eeeeee" d="m119.82199 226.87988l0 12.90625l-1.703125 0l0 -9.625l-4.28125 9.625l-1.203125 0l-4.296875 -9.640625l0 9.640625l-1.703125 0l0 -12.90625l1.828125 0l4.78125 10.671875l4.765625 -10.671875l1.8125 0zm2.234909 7.75q0 -1.5625 0.640625 -2.734375q0.640625 -1.1875 1.75 -1.84375q1.109375 -0.65625 2.46875 -0.65625q1.34375 0 2.328125 0.578125q0.984375 0.578125 1.46875 1.453125l0 -1.859375l1.71875 0l0 10.21875l-1.71875 0l0 -1.90625q-0.5 0.90625 -1.5 1.5q-1.0 0.578125 -2.3125 0.578125q-1.375 0 -2.46875 -0.671875q-1.09375 -0.671875 -1.734375 -1.875q-0.640625 -1.21875 -0.640625 -2.78125zm8.65625 0.03125q0 -1.15625 -0.46875 -2.015625q-0.453125 -0.859375 -1.25 -1.3125q-0.796875 -0.46875 -1.75 -0.46875q-0.953125 0 -1.734375 0.453125q-0.78125 0.453125 -1.25 1.3125q-0.46875 0.84375 -0.46875 2.0q0 1.1875 0.46875 2.0625q0.46875 0.859375 1.25 1.3125q0.78125 0.453125 1.734375 0.453125q0.953125 0 1.75 -0.453125q0.796875 -0.453125 1.25 -1.3125q0.46875 -0.875 0.46875 -2.03125zm6.2991333 -8.6875l0 13.8125l-1.703125 0l0 -13.8125l1.703125 0zm7.042557 4.984375l-2.140625 0l0 8.828125l-1.703125 0l0 -8.828125l-1.328125 0l0 -1.390625l1.328125 0l0 -0.734375q0 -1.71875 0.890625 -2.5q0.890625 -0.796875 2.84375 -0.796875l0 1.421875q-1.125 0 -1.578125 0.4375q-0.453125 0.4375 -0.453125 1.4375l0 0.734375l2.140625 0l0 1.390625zm6.434784 9.0q-1.4375 0 -2.609375 -0.65625q-1.15625 -0.65625 -1.828125 -1.859375q-0.65625 -1.203125 -0.65625 -2.78125q0 -1.578125 0.6875 -2.78125q0.6875 -1.203125 1.859375 -1.84375q1.171875 -0.640625 2.625 -0.640625q1.453125 0 2.625 0.640625q1.1875 0.640625 1.859375 1.84375q0.6875 1.1875 0.6875 2.78125q0 1.578125 -0.703125 2.78125q-0.703125 1.203125 -1.90625 1.859375q-1.1875 0.65625 -2.640625 0.65625zm0 -1.5q0.921875 0 1.71875 -0.421875q0.796875 -0.4375 1.296875 -1.296875q0.5 -0.859375 0.5 -2.078125q0 -1.234375 -0.484375 -2.09375q-0.484375 -0.859375 -1.28125 -1.28125q-0.78125 -0.421875 -1.6875 -0.421875q-0.9375 0 -1.71875 0.421875q-0.765625 0.421875 -1.234375 1.28125q-0.46875 0.859375 -0.46875 2.09375q0 1.25 0.453125 2.109375q0.46875 0.84375 1.234375 1.265625q0.765625 0.421875 1.671875 0.421875zm9.190002 -7.234375q0.4375 -0.875 1.265625 -1.359375q0.84375 -0.484375 2.03125 -0.484375l0 1.75l-0.453125 0q-2.84375 0 -2.84375 3.09375l0 5.5625l-1.703125 0l0 -10.21875l1.703125 0l0 1.65625zm17.552536 -1.84375q1.1875 0 2.125 0.5q0.9375 0.484375 1.46875 1.484375q0.546875 0.984375 0.546875 2.390625l0 6.03125l-1.6875 0l0 -5.78125q0 -1.53125 -0.75 -2.34375q-0.75 -0.8125 -2.046875 -0.8125q-1.3125 0 -2.109375 0.859375q-0.78125 0.84375 -0.78125 2.4375l0 5.640625l-1.671875 0l0 -5.78125q0 -1.53125 -0.765625 -2.34375q-0.75 -0.8125 -2.03125 -0.8125q-1.328125 0 -2.109375 0.859375q-0.78125 0.84375 -0.78125 2.4375l0 5.640625l-1.703125 0l0 -10.21875l1.703125 0l0 1.46875q0.5 -0.796875 1.34375 -1.21875q0.84375 -0.4375 1.875 -0.4375q1.296875 0 2.28125 0.578125q0.984375 0.578125 1.46875 1.6875q0.4375 -1.078125 1.421875 -1.671875q0.984375 -0.59375 2.203125 -0.59375zm16.247192 4.90625q0 0.484375 -0.0625 1.015625l-8.171875 0q0.09375 1.515625 1.03125 2.375q0.953125 0.84375 2.296875 0.84375q1.09375 0 1.828125 -0.515625q0.75 -0.515625 1.046875 -1.375l1.828125 0q-0.40625 1.484375 -1.640625 2.40625q-1.234375 0.921875 -3.0625 0.921875q-1.453125 0 -2.609375 -0.65625q-1.140625 -0.65625 -1.796875 -1.859375q-0.65625 -1.203125 -0.65625 -2.78125q0 -1.59375 0.640625 -2.78125q0.640625 -1.203125 1.78125 -1.84375q1.140625 -0.640625 2.640625 -0.640625q1.453125 0 2.5625 0.640625q1.125 0.625 1.734375 1.734375q0.609375 1.109375 0.609375 2.515625zm-1.75 -0.359375q0 -0.96875 -0.4375 -1.671875q-0.421875 -0.703125 -1.171875 -1.0625q-0.734375 -0.359375 -1.625 -0.359375q-1.28125 0 -2.1875 0.828125q-0.90625 0.8125 -1.03125 2.265625l6.453125 0zm3.3481293 0.703125q0 -1.5625 0.640625 -2.734375q0.640625 -1.1875 1.75 -1.84375q1.109375 -0.65625 2.484375 -0.65625q1.1875 0 2.21875 0.546875q1.03125 0.546875 1.5625 1.453125l0 -5.421875l1.71875 0l0 13.8125l-1.71875 0l0 -1.921875q-0.5 0.921875 -1.484375 1.515625q-0.984375 0.578125 -2.3125 0.578125q-1.359375 0 -2.46875 -0.671875q-1.109375 -0.671875 -1.75 -1.875q-0.640625 -1.21875 -0.640625 -2.78125zm8.65625 0.03125q0 -1.15625 -0.46875 -2.015625q-0.453125 -0.859375 -1.25 -1.3125q-0.796875 -0.46875 -1.75 -0.46875q-0.953125 0 -1.734375 0.453125q-0.78125 0.453125 -1.25 1.3125q-0.46875 0.84375 -0.46875 2.0q0 1.1875 0.46875 2.0625q0.46875 0.859375 1.25 1.3125q0.78125 0.453125 1.734375 0.453125q0.953125 0 1.75 -0.453125q0.796875 -0.453125 1.25 -1.3125q0.46875 -0.875 0.46875 -2.03125z" fill-rule="nonzero"/><path fill="#eeeeee" d="m136.9819 255.27051q0 -1.890625 0.859375 -3.40625q0.859375 -1.53125 2.34375 -2.390625q1.484375 -0.859375 3.296875 -0.859375q2.125 0 3.703125 1.03125q1.59375 1.015625 2.328125 2.90625l-2.046875 0q-0.53125 -1.171875 -1.546875 -1.796875q-1.015625 -0.640625 -2.4375 -0.640625q-1.359375 0 -2.453125 0.640625q-1.078125 0.625 -1.703125 1.796875q-0.609375 1.15625 -0.609375 2.71875q0 1.546875 0.609375 2.71875q0.625 1.171875 1.703125 1.8125q1.09375 0.625 2.453125 0.625q1.421875 0 2.4375 -0.625q1.015625 -0.625 1.546875 -1.796875l2.046875 0q-0.734375 1.859375 -2.328125 2.875q-1.578125 1.015625 -3.703125 1.015625q-1.8125 0 -3.296875 -0.84375q-1.484375 -0.84375 -2.34375 -2.359375q-0.859375 -1.515625 -0.859375 -3.421875zm24.371384 1.015625q0 0.484375 -0.0625 1.015625l-8.171875 0q0.09375 1.515625 1.03125 2.375q0.953125 0.84375 2.296875 0.84375q1.09375 0 1.828125 -0.515625q0.75 -0.515625 1.046875 -1.375l1.828125 0q-0.40625 1.484375 -1.640625 2.40625q-1.234375 0.921875 -3.0625 0.921875q-1.453125 0 -2.609375 -0.65625q-1.140625 -0.65625 -1.796875 -1.859375q-0.65625 -1.203125 -0.65625 -2.78125q0 -1.59375 0.640625 -2.78125q0.640625 -1.203125 1.78125 -1.84375q1.140625 -0.640625 2.640625 -0.640625q1.453125 0 2.5625 0.640625q1.125 0.625 1.734375 1.734375q0.609375 1.109375 0.609375 2.515625zm-1.75 -0.359375q0 -0.96875 -0.4375 -1.671875q-0.421875 -0.703125 -1.171875 -1.0625q-0.734375 -0.359375 -1.625 -0.359375q-1.28125 0 -2.1875 0.828125q-0.90625 0.8125 -1.03125 2.265625l6.453125 0zm5.6918793 -2.703125q0.4375 -0.875 1.265625 -1.359375q0.84375 -0.484375 2.03125 -0.484375l0 1.75l-0.453125 0q-2.84375 0 -2.84375 3.09375l0 5.5625l-1.703125 0l0 -10.21875l1.703125 0l0 1.65625zm7.318161 -0.265625l0 6.03125q0 0.75 0.3125 1.0625q0.328125 0.296875 1.109375 0.296875l1.25 0l0 1.4375l-1.53125 0q-1.40625 0 -2.125 -0.65625q-0.703125 -0.65625 -0.703125 -2.140625l0 -6.03125l-1.328125 0l0 -1.390625l1.328125 0l0 -2.578125l1.6875 0l0 2.578125l2.671875 0l0 1.390625l-2.671875 0z" fill-rule="nonzero"/><path fill="#666666" d="m65.55643 314.48032l180.97638 0l0 82.64566l-180.97638 0z" fill-rule="evenodd"/><path fill="#eeeeee" d="m122.42788 338.72314l-3.765625 13.0l-1.90625 0l-3.03125 -10.46875l-3.125 10.46875l-1.890625 0.015625l-3.640625 -13.015625l1.8125 0l2.84375 11.015625l3.125 -11.015625l1.90625 0l2.984375 10.984375l2.859375 -10.984375l1.828125 0zm11.192894 7.5q0 0.484375 -0.0625 1.015625l-8.171883 0q0.09375 1.515625 1.03125 2.375q0.953125 0.84375 2.2968826 0.84375q1.09375 0 1.828125 -0.515625q0.75 -0.515625 1.046875 -1.375l1.828125 0q-0.40625 1.484375 -1.640625 2.40625q-1.234375 0.921875 -3.0625 0.921875q-1.4531326 0 -2.6093826 -0.65625q-1.140625 -0.65625 -1.796875 -1.859375q-0.65625 -1.203125 -0.65625 -2.78125q0 -1.59375 0.640625 -2.78125q0.640625 -1.203125 1.78125 -1.84375q1.140625 -0.640625 2.6406326 -0.640625q1.453125 0 2.5625 0.640625q1.125 0.625 1.734375 1.734375q0.609375 1.109375 0.609375 2.515625zm-1.75 -0.359375q0 -0.96875 -0.4375 -1.671875q-0.421875 -0.703125 -1.171875 -1.0625q-0.734375 -0.359375 -1.625 -0.359375q-1.2812576 0 -2.1875076 0.828125q-0.90625 0.8125 -1.03125 2.265625l6.4531326 0zm5.6918793 -7.953125l0 13.8125l-1.703125 0l0 -13.8125l1.703125 0zm7.042557 4.984375l-2.140625 0l0 8.828125l-1.703125 0l0 -8.828125l-1.328125 0l0 -1.390625l1.328125 0l0 -0.734375q0 -1.71875 0.890625 -2.5q0.890625 -0.796875 2.84375 -0.796875l0 1.421875q-1.125 0 -1.578125 0.4375q-0.453125 0.4375 -0.453125 1.4375l0 0.734375l2.140625 0l0 1.390625zm6.434784 9.0q-1.4375 0 -2.609375 -0.65625q-1.15625 -0.65625 -1.828125 -1.859375q-0.65625 -1.203125 -0.65625 -2.78125q0 -1.578125 0.6875 -2.78125q0.6875 -1.203125 1.859375 -1.84375q1.171875 -0.640625 2.625 -0.640625q1.453125 0 2.625 0.640625q1.1875 0.640625 1.859375 1.84375q0.6875 1.1875 0.6875 2.78125q0 1.578125 -0.703125 2.78125q-0.703125 1.203125 -1.90625 1.859375q-1.1875 0.65625 -2.640625 0.65625zm0 -1.5q0.921875 0 1.71875 -0.421875q0.796875 -0.4375 1.296875 -1.296875q0.5 -0.859375 0.5 -2.078125q0 -1.234375 -0.484375 -2.09375q-0.484375 -0.859375 -1.28125 -1.28125q-0.78125 -0.421875 -1.6875 -0.421875q-0.9375 0 -1.71875 0.421875q-0.765625 0.421875 -1.234375 1.28125q-0.46875 0.859375 -0.46875 2.09375q0 1.25 0.453125 2.109375q0.46875 0.84375 1.234375 1.265625q0.765625 0.421875 1.671875 0.421875zm9.190002 -7.234375q0.4375 -0.875 1.265625 -1.359375q0.84375 -0.484375 2.03125 -0.484375l0 1.75l-0.453125 0q-2.84375 0 -2.84375 3.09375l0 5.5625l-1.703125 0l0 -10.21875l1.703125 0l0 1.65625zm17.552536 -1.84375q1.1875 0 2.125 0.5q0.9375 0.484375 1.46875 1.484375q0.546875 0.984375 0.546875 2.390625l0 6.03125l-1.6875 0l0 -5.78125q0 -1.53125 -0.75 -2.34375q-0.75 -0.8125 -2.046875 -0.8125q-1.3125 0 -2.109375 0.859375q-0.78125 0.84375 -0.78125 2.4375l0 5.640625l-1.671875 0l0 -5.78125q0 -1.53125 -0.765625 -2.34375q-0.75 -0.8125 -2.03125 -0.8125q-1.328125 0 -2.109375 0.859375q-0.78125 0.84375 -0.78125 2.4375l0 5.640625l-1.703125 0l0 -10.21875l1.703125 0l0 1.46875q0.5 -0.796875 1.34375 -1.21875q0.84375 -0.4375 1.875 -0.4375q1.296875 0 2.28125 0.578125q0.984375 0.578125 1.46875 1.6875q0.4375 -1.078125 1.421875 -1.671875q0.984375 -0.59375 2.203125 -0.59375zm16.247192 4.90625q0 0.484375 -0.0625 1.015625l-8.171875 0q0.09375 1.515625 1.03125 2.375q0.953125 0.84375 2.296875 0.84375q1.09375 0 1.828125 -0.515625q0.75 -0.515625 1.046875 -1.375l1.828125 0q-0.40625 1.484375 -1.640625 2.40625q-1.234375 0.921875 -3.0625 0.921875q-1.453125 0 -2.609375 -0.65625q-1.140625 -0.65625 -1.796875 -1.859375q-0.65625 -1.203125 -0.65625 -2.78125q0 -1.59375 0.640625 -2.78125q0.640625 -1.203125 1.78125 -1.84375q1.140625 -0.640625 2.640625 -0.640625q1.453125 0 2.5625 0.640625q1.125 0.625 1.734375 1.734375q0.609375 1.109375 0.609375 2.515625zm-1.75 -0.359375q0 -0.96875 -0.4375 -1.671875q-0.421875 -0.703125 -1.171875 -1.0625q-0.734375 -0.359375 -1.625 -0.359375q-1.28125 0 -2.1875 0.828125q-0.90625 0.8125 -1.03125 2.265625l6.453125 0zm3.348114 0.703125q0 -1.5625 0.640625 -2.734375q0.640625 -1.1875 1.75 -1.84375q1.109375 -0.65625 2.484375 -0.65625q1.1875 0 2.21875 0.546875q1.03125 0.546875 1.5625 1.453125l0 -5.421875l1.71875 0l0 13.8125l-1.71875 0l0 -1.921875q-0.5 0.921875 -1.484375 1.515625q-0.984375 0.578125 -2.3125 0.578125q-1.359375 0 -2.46875 -0.671875q-1.109375 -0.671875 -1.75 -1.875q-0.640625 -1.21875 -0.640625 -2.78125zm8.65625 0.03125q0 -1.15625 -0.46875 -2.015625q-0.453125 -0.859375 -1.25 -1.3125q-0.796875 -0.46875 -1.75 -0.46875q-0.953125 0 -1.734375 0.453125q-0.78125 0.453125 -1.25 1.3125q-0.46875 0.84375 -0.46875 2.0q0 1.1875 0.46875 2.0625q0.46875 0.859375 1.25 1.3125q0.78125 0.453125 1.734375 0.453125q0.953125 0 1.75 -0.453125q0.796875 -0.453125 1.25 -1.3125q0.46875 -0.875 0.46875 -2.03125z" fill-rule="nonzero"/><path fill="#eeeeee" d="m136.9819 367.20752q0 -1.890625 0.859375 -3.40625q0.859375 -1.53125 2.34375 -2.390625q1.484375 -0.859375 3.296875 -0.859375q2.125 0 3.703125 1.03125q1.59375 1.015625 2.328125 2.90625l-2.046875 0q-0.53125 -1.171875 -1.546875 -1.796875q-1.015625 -0.640625 -2.4375 -0.640625q-1.359375 0 -2.453125 0.640625q-1.078125 0.625 -1.703125 1.796875q-0.609375 1.15625 -0.609375 2.71875q0 1.546875 0.609375 2.71875q0.625 1.171875 1.703125 1.8125q1.09375 0.625 2.453125 0.625q1.421875 0 2.4375 -0.625q1.015625 -0.625 1.546875 -1.796875l2.046875 0q-0.734375 1.859375 -2.328125 2.875q-1.578125 1.015625 -3.703125 1.015625q-1.8125 0 -3.296875 -0.84375q-1.484375 -0.84375 -2.34375 -2.359375q-0.859375 -1.515625 -0.859375 -3.421875zm24.371384 1.015625q0 0.484375 -0.0625 1.015625l-8.171875 0q0.09375 1.515625 1.03125 2.375q0.953125 0.84375 2.296875 0.84375q1.09375 0 1.828125 -0.515625q0.75 -0.515625 1.046875 -1.375l1.828125 0q-0.40625 1.484375 -1.640625 2.40625q-1.234375 0.921875 -3.0625 0.921875q-1.453125 0 -2.609375 -0.65625q-1.140625 -0.65625 -1.796875 -1.859375q-0.65625 -1.203125 -0.65625 -2.78125q0 -1.59375 0.640625 -2.78125q0.640625 -1.203125 1.78125 -1.84375q1.140625 -0.640625 2.640625 -0.640625q1.453125 0 2.5625 0.640625q1.125 0.625 1.734375 1.734375q0.609375 1.109375 0.609375 2.515625zm-1.75 -0.359375q0 -0.96875 -0.4375 -1.671875q-0.421875 -0.703125 -1.171875 -1.0625q-0.734375 -0.359375 -1.625 -0.359375q-1.28125 0 -2.1875 0.828125q-0.90625 0.8125 -1.03125 2.265625l6.453125 0zm5.6918793 -2.703125q0.4375 -0.875 1.265625 -1.359375q0.84375 -0.484375 2.03125 -0.484375l0 1.75l-0.453125 0q-2.84375 0 -2.84375 3.09375l0 5.5625l-1.703125 0l0 -10.21875l1.703125 0l0 1.65625zm7.318161 -0.265625l0 6.03125q0 0.75 0.3125 1.0625q0.328125 0.296875 1.109375 0.296875l1.25 0l0 1.4375l-1.53125 0q-1.40625 0 -2.125 -0.65625q-0.703125 -0.65625 -0.703125 -2.140625l0 -6.03125l-1.328125 0l0 -1.390625l1.328125 0l0 -2.578125l1.6875 0l0 2.578125l2.671875 0l0 1.390625l-2.671875 0z" fill-rule="nonzero"/><path fill="#000000" fill-opacity="0.0" d="m289.41208 245.95276l202.04724 -79.59056" fill-rule="evenodd"/><path stroke="#595959" stroke-width="1.0" stroke-linejoin="round" stroke-linecap="butt" d="m289.41208 245.95276l196.46475 -77.391495" fill-rule="evenodd"/><path fill="#595959" stroke="#595959" stroke-width="1.0" stroke-linecap="butt" d="m486.4822 170.09805l3.6169434 -3.2000427l-4.8276978 0.12644958z" fill-rule="evenodd"/><path fill="#000000" fill-opacity="0.0" d="m290.8609 248.83989l200.59842 143.02364" fill-rule="evenodd"/><path stroke="#595959" stroke-width="1.0" stroke-linejoin="round" stroke-linecap="butt" d="m290.8609 248.83989l195.71301 139.54039" fill-rule="evenodd"/><path fill="#595959" stroke="#595959" stroke-width="1.0" stroke-linecap="butt" d="m485.61502 389.7252l4.653961 1.2896423l-2.7361755 -3.9794312z" fill-rule="evenodd"/><path fill="#000000" fill-opacity="0.0" d="m290.13123 342.6063l198.4252 -143.9055" fill-rule="evenodd"/><path stroke="#595959" stroke-width="1.0" stroke-linejoin="round" stroke-linecap="butt" d="m290.13123 342.6063l193.56808 -140.38295" fill-rule="evenodd"/><path fill="#595959" stroke="#595959" stroke-width="1.0" stroke-linecap="butt" d="m484.66904 203.56046l2.703949 -4.0013885l-4.643402 1.327179z" fill-rule="evenodd"/><path fill="#000000" fill-opacity="0.0" d="m292.31235 343.33334l196.94489 85.76376" fill-rule="evenodd"/><path stroke="#595959" stroke-width="1.0" stroke-linejoin="round" stroke-linecap="butt" d="m292.31235 343.33334l191.44385 83.368225" fill-rule="evenodd"/><path fill="#595959" stroke="#595959" stroke-width="1.0" stroke-linecap="butt" d="m483.0967 428.21594l4.8201904 0.29748535l-3.5012512 -3.326233z" fill-rule="evenodd"/></g></svg>